<svg xmlns="http://www.w3.org/2000/svg" viewBox="0 0 645.96 690.33"><defs><style>.cls-1{fill:#308d62;}.cls-2{opacity:0.2;}.cls-21,.cls-22,.cls-3,.cls-9{fill:#fff;}.cls-4{fill:#378958;}.cls-5{fill:#2b454e;}.cls-6{fill:#1a2e35;}.cls-12,.cls-7{fill:#375a64;}.cls-8{opacity:0.15;}.cls-9{opacity:0.7;}.cls-10{fill:#f0f0f0;}.cls-11{fill:#e1e1e1;}.cls-12,.cls-18{opacity:0.8;}.cls-13{fill:#ececec;}.cls-14,.cls-19,.cls-21{opacity:0.3;}.cls-15,.cls-22{opacity:0.4;}.cls-16{opacity:0.5;}.cls-17,.cls-18{fill:#fafafa;}.cls-20{opacity:0.1;}.cls-23{fill:#ffaaa8;}.cls-24{fill:#f5f5f5;}.cls-25{fill:#ff9090;}</style></defs><g id="Layer_2" data-name="Layer 2"><g id="Layer_1-2" data-name="Layer 1"><g id="Plants"><path class="cls-1" d="M596,510.12c0-10-2-28.51,6.5-45.84,6.15-12.56,17.15-24.76,27.38-23.55,9.54,1.13,10.4,15.78,1.29,25.81s-20.72,23.91-23.25,46.09l-6.56,16.46Z"/><g class="cls-2"><path d="M596,510.12c0-10-2-28.51,6.5-45.84,6.15-12.56,17.15-24.76,27.38-23.55,9.54,1.13,10.4,15.78,1.29,25.81s-20.72,23.91-23.25,46.09l-6.56,16.46Z"/></g><path class="cls-3" d="M599.38,517.16a.69.69,0,0,0,.58-.71c-1.16-28.51,8.12-52.18,26.83-68.45a.69.69,0,0,0-.91-1.05c-19,16.55-28.49,40.61-27.32,69.56a.69.69,0,0,0,.73.66Z"/><path class="cls-4" d="M594.15,546a35.46,35.46,0,0,0,17.63,4.91c10.73.25,14.69-5.39,14.69-5.39s-5.46-9.3-11.79-11.27c0,0,10.39.71,19.24,5,0,0,6.42-.77,7.67-10.9,0,0-4.6-5.38-17.78-6.86,0,0,7.5-3,19.06-1.64.89.22,2.77-12.91,3.06-18.9s-2-5.61-6.75-6.22-20.33.71-22.84,3.6S613.52,510,613.52,510s-3.37-4.48-3.3-8.89a16.42,16.42,0,0,0-9.66,1.53c-4.87,2.47-6.44,4.44-6.68,8.19s-.56,9.35.94,13.7c0,0-4.44-7.16-4.21-13.4a66.66,66.66,0,0,0-4.54,9.5C584,526.06,586.46,539.27,594.15,546Z"/><path class="cls-3" d="M594.33,546.64a.7.7,0,0,0,.48-.45c6.11-18.73,34.85-43.39,45.83-47.09a.71.71,0,0,0,.44-.89.68.68,0,0,0-.89-.43c-11.19,3.77-40.48,28.9-46.7,48a.7.7,0,0,0,.44.88A.68.68,0,0,0,594.33,546.64Z"/></g><g id="Device"><g id="Monitor"><path class="cls-5" d="M251.7,547.32l56.78-32.83c5.85-3.38,8.78-7.81,8.78-12.23s0-7.9,0-7.9L263.86,464a12.47,12.47,0,0,1-5.66-9.79v-70L159,441.55v70a12.5,12.5,0,0,0,5.65,9.79l44.63,26C221,554.08,240,554.08,251.7,547.32Z"/><path class="cls-6" d="M182.84,524v7.86l-18.18-10.47a12.51,12.51,0,0,1-5.64-9.79v-70l18.89-10.9c.39,4.8.82,9.76,1.21,14.59l-13.25,7.66v54.7a12.42,12.42,0,0,0,5.65,9.79Z"/><path class="cls-7" d="M165.87,507.61a12.5,12.5,0,0,0,5.65,9.79l37.78,22c11.71,6.76,30.69,6.76,42.4,0l56.8-32.83c11.71-6.75,11.71-17.71,0-24.47l-37.81-22A12.51,12.51,0,0,1,265,450.3V395.6l-99.17,57.31Z"/><path class="cls-8" d="M282.21,466.74h0l-11.51-6.65A12.48,12.48,0,0,1,265,450.3V395.6l-99.17,57.31v54.7a12.5,12.5,0,0,0,5.65,9.79l11.31,6.53Z"/><path class="cls-5" d="M317.27,494.36v7.9c0,4.44-2.93,8.84-8.77,12.24l-56.79,32.81c-5.62,3.26-12.89,4.89-20.24,5v-7.87c7.35-.1,14.62-1.79,20.24-5L308.5,506.6C314.34,503.24,317.27,498.8,317.27,494.36Z"/><path class="cls-7" d="M6.63,583.13c3.66,2.11,9.79,2,13.69-.25L403.86,361.44a15.59,15.59,0,0,0,7.07-12.23V13.5c0-4.51-3-9.87-6.63-12s-9.79-2-13.69.26L7.07,223.2A15.62,15.62,0,0,0,0,235.44V571.15C0,575.65,3,581,6.63,583.13Z"/><path class="cls-5" d="M20.32,582.87,403.86,361.44a15.62,15.62,0,0,0,7.07-12.24V13.49c0-4.51-3.16-6.33-7.07-4.08L20.33,230.84a15.65,15.65,0,0,0-7.07,12.24V578.79C13.26,583.3,16.42,585.12,20.32,582.87Z"/><path class="cls-1" d="M26.51,534.44v-287a9.37,9.37,0,0,1,4.24-7.34L393.43,30.75c2.34-1.35,4.24-.26,4.24,2.45v287a9.39,9.39,0,0,1-4.24,7.35L30.75,536.89C28.41,538.24,26.51,537.15,26.51,534.44Z"/><path class="cls-9" d="M26.51,534.44v-287a9.37,9.37,0,0,1,4.24-7.34L393.43,30.75c2.34-1.35,4.24-.26,4.24,2.45v287a9.39,9.39,0,0,1-4.24,7.35L30.75,536.89C28.41,538.24,26.51,537.15,26.51,534.44Z"/><path class="cls-1" d="M211.37,458.57a4.21,4.21,0,0,1-2.13-.56c-1.51-.87-2.34-2.64-2.34-5a15.35,15.35,0,0,1,7-12.18h0c2-1.17,4-1.33,5.49-.46s2.34,2.64,2.34,5a15.31,15.31,0,0,1-7,12.18A6.76,6.76,0,0,1,211.37,458.57Zm5.92-17.13a5.25,5.25,0,0,0-2.56.8h0A13.79,13.79,0,0,0,208.5,453c0,1.74.55,3,1.54,3.6s2.38.4,3.89-.47a13.79,13.79,0,0,0,6.23-10.79c0-1.74-.55-3-1.54-3.59A2.58,2.58,0,0,0,217.29,441.44Z"/></g></g><g id="Window"><path class="cls-10" d="M460.67,84.75,87.14,300.15v275.3a4.77,4.77,0,0,0,7.14,4.14l6.66-3.84L453.7,372.34a15.36,15.36,0,0,0,7-12Z"/><path class="cls-11" d="M459.06,87.53V360.29A13.82,13.82,0,0,1,452.9,371L100.14,574.36l-6.66,3.84a3.13,3.13,0,0,1-1.56.43,3.22,3.22,0,0,1-2.21-.9,3.14,3.14,0,0,1-1-2.28V301.08L459.06,87.53m1.61-2.78L87.14,300.15v275.3a4.78,4.78,0,0,0,4.78,4.78,4.69,4.69,0,0,0,2.36-.64l6.66-3.84L453.7,372.34a15.36,15.36,0,0,0,7-12V84.75Z"/><polygon class="cls-12" points="451.81 79.63 78.26 295.02 87.14 300.15 460.67 84.75 451.81 79.63"/><path class="cls-13" d="M89.64,579.66a4.83,4.83,0,0,1-2.5-4.21V300.15L78.26,295V568.8a8.72,8.72,0,0,0,.06,1A7.39,7.39,0,0,0,82,575.21l7.33,4.24.36.21Z"/><path class="cls-1" d="M78.26,295.14V276.57a7.74,7.74,0,0,1,3.46-6L448.34,59.18a7.65,7.65,0,0,1,6.94,0l1.91,1.11a7.67,7.67,0,0,1,3.48,6v18.6L87.14,300.27Z"/><path class="cls-14" d="M78.26,295.14V276.57a7.74,7.74,0,0,1,3.46-6L448.34,59.18a7.65,7.65,0,0,1,6.94,0l1.91,1.11a7.67,7.67,0,0,1,3.48,6v18.6L87.14,300.27Z"/><path class="cls-1" d="M87.14,281.7a7.74,7.74,0,0,1,3.46-6L457.2,64.3c1.92-1.12,3.47-.23,3.47,2v18.6L87.14,300.27Z"/><path class="cls-15" d="M87.14,281.7a7.74,7.74,0,0,1,3.46-6L457.2,64.3c1.92-1.12,3.47-.23,3.47,2v18.6L87.14,300.27Z"/><path class="cls-1" d="M88.15,278.26a7.13,7.13,0,0,0-1,3.44v18.57l-8.88-5.12V276.56a7.17,7.17,0,0,1,1-3.42Z"/><path class="cls-16" d="M88.15,278.26a7.13,7.13,0,0,0-1,3.44v18.57l-8.88-5.12V276.56a7.17,7.17,0,0,1,1-3.42Z"/><path class="cls-17" d="M444.37,84.05c0,2.08,1.46,2.92,3.26,1.88a7.21,7.21,0,0,0,3.26-5.65c0-2.07-1.46-2.92-3.26-1.88A7.21,7.21,0,0,0,444.37,84.05Z"/><path class="cls-17" d="M431.33,91.58c0,2.08,1.46,2.92,3.26,1.88a7.21,7.21,0,0,0,3.26-5.65c0-2.08-1.46-2.92-3.26-1.88A7.21,7.21,0,0,0,431.33,91.58Z"/><path class="cls-17" d="M418.29,99.11c0,2.08,1.46,2.92,3.26,1.88a7.21,7.21,0,0,0,3.26-5.65c0-2.08-1.46-2.92-3.26-1.88A7.21,7.21,0,0,0,418.29,99.11Z"/><path class="cls-17" d="M87.14,300.27V575.45a4.77,4.77,0,0,0,7.14,4.14l6.66-3.84,81.63-47.07V245.25l-95.43,55Z"/><polygon class="cls-17" points="189.09 249.89 189.09 517.16 452.84 364.89 452.83 97.62 189.09 249.89"/><path class="cls-1" d="M160.72,277.54,99.85,312.72a4.49,4.49,0,0,0-2,3.53v6.34c0,1.3.91,1.82,2,1.17l60.87-35.17a4.5,4.5,0,0,0,2-3.54v-6.33C162.76,277.42,161.85,276.89,160.72,277.54Z"/><path class="cls-18" d="M160.72,277.54,99.85,312.72a4.49,4.49,0,0,0-2,3.53v6.34c0,1.3.91,1.82,2,1.17l60.87-35.17a4.5,4.5,0,0,0,2-3.54v-6.33C162.76,277.42,161.85,276.89,160.72,277.54Z"/><path class="cls-7" d="M174.28,280.05l-1.8-1.72a7.89,7.89,0,0,0,.57-2.87,3.39,3.39,0,0,0-1.34-3.08,2.12,2.12,0,0,0-2.18.1c-1.58.91-2.82,3.47-2.82,5.83a3.41,3.41,0,0,0,1.34,3.08,1.92,1.92,0,0,0,1,.26,2.41,2.41,0,0,0,1.22-.36,4.8,4.8,0,0,0,1.6-1.63l1.47,1.41a.7.7,0,0,0,1,0A.71.71,0,0,0,174.28,280.05Zm-4.75,0a.75.75,0,0,1-.77.09c-.3-.17-.64-.75-.64-1.85,0-1.84,1-3.95,2.11-4.61a1,1,0,0,1,.51-.16.53.53,0,0,1,.26.06c.3.17.64.76.64,1.86C171.64,277.3,170.67,279.41,169.53,280.07Z"/><path class="cls-7" d="M99.29,342.36l-1.37.79c-.08.05-.14,0-.14-.11v-3.7a.33.33,0,0,1,.14-.27l1.37-.79c.08,0,.14,0,.14.11v3.69A.34.34,0,0,1,99.29,342.36Z"/><path class="cls-7" d="M101.33,341.18,100,342c-.08,0-.15,0-.15-.11v-3.7a.37.37,0,0,1,.15-.28l1.36-.78c.09-.05.15,0,.15.11v3.69A.32.32,0,0,1,101.33,341.18Z"/><path class="cls-7" d="M103.38,340l-1.36.79c-.08,0-.15,0-.15-.11V337a.36.36,0,0,1,.15-.28l1.36-.78c.08-.05.15,0,.15.11v3.69A.36.36,0,0,1,103.38,340Z"/><path class="cls-7" d="M99.29,347.13l-1.37.79c-.08.05-.14,0-.14-.11v-3.7a.35.35,0,0,1,.14-.28l1.37-.78c.08-.05.14,0,.14.11v3.69A.35.35,0,0,1,99.29,347.13Z"/><path class="cls-7" d="M101.33,346l-1.36.79c-.08,0-.15,0-.15-.11v-3.7a.36.36,0,0,1,.15-.28l1.36-.79c.09,0,.15,0,.15.11v3.7A.33.33,0,0,1,101.33,346Z"/><path class="cls-7" d="M103.38,344.77l-1.36.79c-.08,0-.15,0-.15-.11v-3.7a.36.36,0,0,1,.15-.28l1.36-.79c.08,0,.15,0,.15.11v3.7A.36.36,0,0,1,103.38,344.77Z"/><path class="cls-7" d="M99.51,359.72l-1.68-1c-.07,0-.07-.19,0-.3l1.68-3c.08-.14.19-.12.19,0v4C99.7,359.62,99.59,359.77,99.51,359.72Z"/><path class="cls-7" d="M98.8,357.46l2.21-1.28v1.06l-2.21,1.27c-.19.11-.34,0-.34-.33A.91.91,0,0,1,98.8,357.46Z"/><polygon class="cls-7" points="101.42 355.94 102.18 355.51 102.18 356.56 101.42 357 101.42 355.94"/><path class="cls-7" d="M104.22,354.86v3.87a.9.9,0,0,1-.35.72c-.18.11-.34,0-.34-.33v-3.34l-.93.54v-1.05l1.27-.74C104.06,354.42,104.22,354.57,104.22,354.86Z"/><path class="cls-7" d="M100.16,368.4c-1.57,1.08-2.63,4.05-2.33,6.26.27,2,1.47,1.93,1.6,2.87,0,.1.08.14.15.09l1.5-.85a.36.36,0,0,0,.15-.27c.16-1.23,1.69-2.72,1.7-5.72C102.94,368.48,101.68,367.35,100.16,368.4Z"/><path class="cls-7" d="M101.05,379.19l-1.44.83c-.1.06-.18,0-.18-.13v-1.33a.43.43,0,0,1,.18-.35l1.44-.83c.1-.06.18,0,.18.14v1.33A.43.43,0,0,1,101.05,379.19Z"/><path class="cls-7" d="M100.51,337.18a8.76,8.76,0,0,0-2.62,5.53,5.75,5.75,0,0,0,.38,3l-.48,2.53c0,.21.07.32.19.19l1.45-1.59a2.28,2.28,0,0,0,2.12-.62,8.79,8.79,0,0,0,2.62-5.55C104.52,337.17,102.67,335.39,100.51,337.18Zm.52,8.27c-1.34.77-2.43-.28-2.43-2.34s1.09-4.36,2.43-5.14,2.43.28,2.43,2.34S102.37,344.68,101,345.45Z"/><path class="cls-7" d="M100.51,385.89a8.76,8.76,0,0,0-2.62,5.54,5.78,5.78,0,0,0,.38,3L97.79,397c0,.21.07.32.19.19l1.45-1.59a2.28,2.28,0,0,0,2.12-.62,8.77,8.77,0,0,0,2.62-5.55C104.52,385.88,102.67,384.11,100.51,385.89Zm.52,8.27c-1.34.78-2.43-.27-2.43-2.33s1.09-4.37,2.43-5.15,2.43.28,2.43,2.34S102.37,393.39,101,394.16Z"/><path class="cls-7" d="M102.56,403.74a3.37,3.37,0,0,1-1.28,2.71c-.71.41-1.28-.14-1.28-1.23a3.39,3.39,0,0,1,1.28-2.72C102,402.09,102.56,402.65,102.56,403.74Z"/><path class="cls-7" d="M104.76,404.12a2.25,2.25,0,0,1-.85,1.81c-.47.27-.85-.09-.85-.82a2.27,2.27,0,0,1,.85-1.81C104.38,403,104.76,403.4,104.76,404.12Z"/><path class="cls-7" d="M102.79,411.51l-3,1.75v-3.83a2.64,2.64,0,0,1,1.09-2.1l.84-.48c.6-.35,1.09,0,1.09.83Z"/><path class="cls-7" d="M104,406.37l-.83.48v4.42l1.57-.91v-3.43C104.78,406.39,104.45,406.14,104,406.37Z"/><path class="cls-7" d="M97.8,408.15c0,.72.38,1.09.85.82a2.25,2.25,0,0,0,.85-1.81c0-.73-.38-1.09-.85-.82A2.25,2.25,0,0,0,97.8,408.15Z"/><path class="cls-7" d="M98.52,409.56l.83-.48v4.42l-1.57.91V411A1.78,1.78,0,0,1,98.52,409.56Z"/><path class="cls-11" d="M112.58,333.7l35.65-20.58c1-.55,1.74-.16,1.74.88a3.74,3.74,0,0,1-1.74,2.89l-35.65,20.58c-1,.55-1.73.16-1.73-.88A3.73,3.73,0,0,1,112.58,333.7Z"/><path class="cls-11" d="M112.58,350.48l35.65-20.58c1-.55,1.74-.16,1.74.88a3.71,3.71,0,0,1-1.74,2.88l-35.65,20.58c-1,.56-1.73.17-1.73-.87A3.72,3.72,0,0,1,112.58,350.48Z"/><path class="cls-11" d="M112.58,367.26l35.65-20.58c1-.56,1.74-.16,1.74.88a3.71,3.71,0,0,1-1.74,2.88L112.58,371c-1,.56-1.73.16-1.73-.88A3.7,3.7,0,0,1,112.58,367.26Z"/><path class="cls-11" d="M112.58,384l35.65-20.58c1-.56,1.74-.16,1.74.88a3.71,3.71,0,0,1-1.74,2.88L112.58,387.8c-1,.56-1.73.16-1.73-.88A3.7,3.7,0,0,1,112.58,384Z"/><path class="cls-11" d="M112.58,400.81l35.65-20.58c1-.55,1.74-.16,1.74.88a3.73,3.73,0,0,1-1.74,2.89l-35.65,20.58c-1,.55-1.73.16-1.73-.88A3.73,3.73,0,0,1,112.58,400.81Z"/><path class="cls-7" d="M119.1,414.51l35.65-20.58c1-.55,1.74-.16,1.74.88a3.74,3.74,0,0,1-1.74,2.89L119.1,418.28c-1,.55-1.73.16-1.73-.88A3.73,3.73,0,0,1,119.1,414.51Z"/><path class="cls-11" d="M119.1,425.85l35.65-20.58c1-.56,1.74-.16,1.74.88a3.71,3.71,0,0,1-1.74,2.88L119.1,429.61c-1,.56-1.73.16-1.73-.88A3.7,3.7,0,0,1,119.1,425.85Z"/><path class="cls-11" d="M119.1,437.18l35.65-20.58c1-.55,1.74-.16,1.74.88a3.74,3.74,0,0,1-1.74,2.89L119.1,441c-1,.55-1.73.16-1.73-.88A3.73,3.73,0,0,1,119.1,437.18Z"/><path class="cls-11" d="M126,444.39l35.65-20.58c1-.56,1.73-.16,1.73.88a3.7,3.7,0,0,1-1.73,2.88L126,448.15c-1,.56-1.74.16-1.74-.88A3.71,3.71,0,0,1,126,444.39Z"/><path class="cls-7" d="M117.71,454.14,120.6,449c.12-.19.12-.45,0-.52l-2.89-1.76c-.14-.09-.34.18-.34.45v6.88C117.37,454.35,117.57,454.38,117.71,454.14Z"/><path class="cls-11" d="M126,455.68l35.65-20.58c1-.55,1.73-.16,1.73.88a3.73,3.73,0,0,1-1.73,2.89L126,459.45c-1,.55-1.74.16-1.74-.88A3.73,3.73,0,0,1,126,455.68Z"/><path class="cls-7" d="M117.71,465.43l2.89-5.11c.12-.19.12-.45,0-.51L117.71,458c-.14-.08-.34.19-.34.46v6.87C117.37,465.64,117.57,465.68,117.71,465.43Z"/><path class="cls-11" d="M126,467l35.65-20.58c1-.56,1.73-.16,1.73.87a3.72,3.72,0,0,1-1.73,2.89L126,470.74c-1,.55-1.74.16-1.74-.88A3.71,3.71,0,0,1,126,467Z"/><path class="cls-7" d="M117.71,476.73l2.89-5.11c.12-.2.12-.45,0-.52l-2.89-1.76c-.14-.09-.34.18-.34.45v6.88C117.37,476.94,117.57,477,117.71,476.73Z"/><path class="cls-11" d="M126,478.27l35.65-20.58c1-.55,1.73-.16,1.73.88a3.7,3.7,0,0,1-1.73,2.88L126,482c-1,.56-1.74.16-1.74-.87A3.73,3.73,0,0,1,126,478.27Z"/><path class="cls-7" d="M117.71,488l2.89-5.11c.12-.19.12-.45,0-.52l-2.89-1.76c-.14-.09-.34.19-.34.46V488C117.37,488.23,117.57,488.27,117.71,488Z"/><path class="cls-11" d="M126,489.56,161.69,469c1-.55,1.73-.16,1.73.88a3.72,3.72,0,0,1-1.73,2.89L126,493.33c-1,.55-1.74.16-1.74-.88A3.74,3.74,0,0,1,126,489.56Z"/><path class="cls-7" d="M117.71,499.32l2.89-5.11c.12-.2.12-.45,0-.52l-2.89-1.77c-.14-.08-.34.19-.34.46v6.87C117.37,499.53,117.57,499.56,117.71,499.32Z"/><path class="cls-11" d="M126,500.86l35.65-20.58c1-.56,1.73-.16,1.73.88a3.7,3.7,0,0,1-1.73,2.88L126,504.62c-1,.56-1.74.16-1.74-.88A3.71,3.71,0,0,1,126,500.86Z"/><path class="cls-7" d="M117.71,510.61l2.89-5.11c.12-.19.12-.45,0-.52l-2.89-1.76c-.14-.09-.34.18-.34.46v6.87C117.37,510.82,117.57,510.86,117.71,510.61Z"/><path class="cls-11" d="M126,512.15l35.65-20.58c1-.55,1.73-.16,1.73.88a3.73,3.73,0,0,1-1.73,2.89L126,515.92c-1,.55-1.74.16-1.74-.88A3.74,3.74,0,0,1,126,512.15Z"/><path class="cls-7" d="M117.71,521.9l2.89-5.1c.12-.2.12-.45,0-.52l-2.89-1.77c-.14-.08-.34.19-.34.46v6.87C117.37,522.11,117.57,522.15,117.71,521.9Z"/><path class="cls-11" d="M126,523.45l35.65-20.58c1-.56,1.73-.16,1.73.88a3.7,3.7,0,0,1-1.73,2.88L126,527.21c-1,.56-1.74.16-1.74-.88A3.71,3.71,0,0,1,126,523.45Z"/><path class="cls-7" d="M117.71,533.2l2.89-5.11c.12-.19.12-.45,0-.52l-2.89-1.76c-.14-.09-.34.18-.34.45v6.88C117.37,533.41,117.57,533.45,117.71,533.2Z"/><path class="cls-10" d="M197.34,286.55,314.5,218.91a3.86,3.86,0,0,0,1.74-3V186c0-1.11-.78-1.56-1.74-1L197.34,252.66a3.85,3.85,0,0,0-1.73,3v29.88C195.61,286.65,196.39,287.1,197.34,286.55Z"/><path class="cls-7" d="M207.56,265.47a.23.23,0,0,1,0-.07l.77-3.21-1.06.61s-.05,0-.07,0a.12.12,0,0,1,0-.09v-.58a.27.27,0,0,1,0-.12.22.22,0,0,1,.07-.09l1.7-1a.06.06,0,0,1,.07,0s0,0,0,.08v.51a1.48,1.48,0,0,1-.06.32l-.77,3.21a.36.36,0,0,1,0,.11.13.13,0,0,1-.06.08l-.5.29h-.06A.1.1,0,0,1,207.56,265.47Z"/><path class="cls-7" d="M210.4,260.07a.88.88,0,0,1,.46-.15.45.45,0,0,1,.32.14.86.86,0,0,1,.19.37,2.62,2.62,0,0,1,.07.52c0,.16,0,.32,0,.49s0,.34,0,.49a4.39,4.39,0,0,1-.07.61,2.81,2.81,0,0,1-.19.58,2.08,2.08,0,0,1-.32.51,1.7,1.7,0,0,1-.46.38.88.88,0,0,1-.46.15.47.47,0,0,1-.32-.14.85.85,0,0,1-.18-.37,2,2,0,0,1-.08-.52c0-.15,0-.31,0-.48s0-.34,0-.5a3.3,3.3,0,0,1,.08-.61,2.79,2.79,0,0,1,.18-.58,2.72,2.72,0,0,1,.32-.51A1.7,1.7,0,0,1,210.4,260.07Zm.38,2.21c0-.31,0-.62,0-.92a1.66,1.66,0,0,0,0-.24.48.48,0,0,0-.07-.16.14.14,0,0,0-.11-.07.28.28,0,0,0-.18.05.93.93,0,0,0-.18.16,1,1,0,0,0-.11.2.86.86,0,0,0-.06.23,1.24,1.24,0,0,0,0,.27c0,.31,0,.62,0,.92a1.66,1.66,0,0,0,0,.24.48.48,0,0,0,.07.16.15.15,0,0,0,.11.07.28.28,0,0,0,.18-.05.65.65,0,0,0,.18-.15.72.72,0,0,0,.12-.21.86.86,0,0,0,.06-.23A2.45,2.45,0,0,0,210.78,262.28Z"/><path class="cls-7" d="M212.87,259.45v.42a3.11,3.11,0,0,1,0,.32,1.63,1.63,0,0,1-.11.31,1,1,0,0,1-.17.27,1.16,1.16,0,0,1-.24.2.6.6,0,0,1-.24.08.29.29,0,0,1-.18-.07.49.49,0,0,1-.1-.19,1.11,1.11,0,0,1,0-.28,1.41,1.41,0,0,1,0-.2,1.55,1.55,0,0,1,0-.21,1.66,1.66,0,0,1,0-.33,1.6,1.6,0,0,1,.1-.31,1.27,1.27,0,0,1,.18-.27.8.8,0,0,1,.24-.2.52.52,0,0,1,.24-.08.29.29,0,0,1,.17.07.39.39,0,0,1,.1.19A1.08,1.08,0,0,1,212.87,259.45Zm.89-1.16a.37.37,0,0,1,.05-.11l.07-.07.3-.17h.06a.08.08,0,0,1,0,.07v0s0,0,0,0l-1.76,4.58-.05.11a.27.27,0,0,1-.08.07l-.29.17s0,0-.06,0a.06.06,0,0,1,0-.06,0,0,0,0,1,0,0,.06.06,0,0,1,0,0Zm-1.6,2a.61.61,0,0,0,0,.19s.06,0,.11,0a.31.31,0,0,0,.11-.14.75.75,0,0,0,0-.23,2.16,2.16,0,0,0,0-.36.46.46,0,0,0,0-.2.08.08,0,0,0-.11,0,.26.26,0,0,0-.11.14,1.2,1.2,0,0,0,0,.23A2.28,2.28,0,0,0,212.16,260.25Zm2.36.16a2.94,2.94,0,0,1,0,.42c0,.11,0,.22,0,.33a1.15,1.15,0,0,1-.11.31,1.06,1.06,0,0,1-.17.26.91.91,0,0,1-.24.2.43.43,0,0,1-.24.08.21.21,0,0,1-.17-.07.4.4,0,0,1-.11-.18,2.09,2.09,0,0,1,0-.28c0-.07,0-.14,0-.2s0-.14,0-.22,0-.22,0-.33a1.63,1.63,0,0,1,.11-.31,1.06,1.06,0,0,1,.17-.26.91.91,0,0,1,.24-.2.52.52,0,0,1,.24-.08.21.21,0,0,1,.17.07.38.38,0,0,1,.11.19A1.73,1.73,0,0,1,214.52,260.41Zm-.71.8a.54.54,0,0,0,0,.19s.06,0,.11,0a.24.24,0,0,0,.11-.13,1.19,1.19,0,0,0,0-.24v-.36a.54.54,0,0,0,0-.19s-.06,0-.11,0a.28.28,0,0,0-.11.13,1.19,1.19,0,0,0,0,.24Z"/><path class="cls-7" d="M207.54,256.27l-1.17-1.82a23.6,23.6,0,0,0-2.78,7.49l1.9-.14A17.45,17.45,0,0,1,207.54,256.27Z"/><path class="cls-7" d="M210.86,252.68v-3.07a13.32,13.32,0,0,0-4.49,4.84l1.17,1.82A9.85,9.85,0,0,1,210.86,252.68Z"/><path class="cls-7" d="M205.21,264.65a15.38,15.38,0,0,1,.28-2.85l-1.9.14a20.36,20.36,0,0,0-.38,3.86,14.2,14.2,0,0,0,.38,3.42l1.9-2.05A10.67,10.67,0,0,1,205.21,264.65Z"/><path class="cls-1" d="M218.14,253.54a6.35,6.35,0,0,0-2.78-4.28,4.48,4.48,0,0,0-4.5.35v3.07a3.3,3.3,0,0,1,3.32-.25,4.71,4.71,0,0,1,2.06,3.16,11.41,11.41,0,0,1,.27,2.53,16.26,16.26,0,0,1-.27,2.85,17.71,17.71,0,0,1-2.06,5.53,9.82,9.82,0,0,1-3.32,3.58,3.27,3.27,0,0,1-3.32.25,4.66,4.66,0,0,1-2-3.16l-1.9,2.05a6.29,6.29,0,0,0,2.78,4.28,4.44,4.44,0,0,0,4.49-.34,13.38,13.38,0,0,0,4.5-4.85,23.76,23.76,0,0,0,2.78-7.49,21,21,0,0,0,.37-3.85A14.9,14.9,0,0,0,218.14,253.54Z"/><path class="cls-7" d="M230,245.13l35.64-20.58c1-.56,1.74-.16,1.74.88a3.73,3.73,0,0,1-1.74,2.88l-35.65,20.58c-.95.55-1.73.16-1.73-.88A3.71,3.71,0,0,1,230,245.13Z"/><path class="cls-11" d="M230,252.71l61.72-35.62c1-.56,1.74-.16,1.74.88a3.71,3.71,0,0,1-1.74,2.88l-61.73,35.63c-.95.55-1.73.16-1.73-.88A3.74,3.74,0,0,1,230,252.71Z"/><path class="cls-10" d="M324.47,213.14l117.16-67.65a3.83,3.83,0,0,0,1.74-3V112.62c0-1.11-.78-1.56-1.74-1L324.47,179.24a3.84,3.84,0,0,0-1.73,3v29.88C322.74,213.24,323.51,213.69,324.47,213.14Z"/><path class="cls-7" d="M335.27,189.32a2.15,2.15,0,0,1,.08-.62,2.44,2.44,0,0,1,.24-.57,2.25,2.25,0,0,1,.33-.46,1.83,1.83,0,0,1,.39-.32.86.86,0,0,1,.39-.13.48.48,0,0,1,.33.08.64.64,0,0,1,.24.29,1.54,1.54,0,0,1,.08.52,1.56,1.56,0,0,1,0,.31l-.06.29c0,.09,0,.18-.08.27s-.07.18-.1.26l-.67,1.83a.36.36,0,0,0,0,.09.22.22,0,0,1-.07.09l-.57.32a0,0,0,0,1-.05,0s0,0,0-.08v0s0,0,0,0l.45-1.25a.78.78,0,0,1-.33.05.47.47,0,0,1-.28-.12.61.61,0,0,1-.19-.29A1.35,1.35,0,0,1,335.27,189.32Zm1.42-.83a.48.48,0,0,0,0-.18.21.21,0,0,0-.08-.1.28.28,0,0,0-.13,0,.3.3,0,0,0-.14,0,.53.53,0,0,0-.14.12,1.09,1.09,0,0,0-.13.17,1.19,1.19,0,0,0-.08.2.57.57,0,0,0,0,.22.34.34,0,0,0,0,.18.21.21,0,0,0,.08.1.15.15,0,0,0,.13,0,.43.43,0,0,0,.14,0,.53.53,0,0,0,.14-.12,1.09,1.09,0,0,0,.13-.17,1.31,1.31,0,0,0,.08-.21A.78.78,0,0,0,336.69,188.49Z"/><path class="cls-7" d="M338.69,186a.85.85,0,0,1,.46-.14.45.45,0,0,1,.32.14.76.76,0,0,1,.19.37,2.62,2.62,0,0,1,.07.52c0,.16,0,.32,0,.49s0,.33,0,.49a4.39,4.39,0,0,1-.07.61,2.32,2.32,0,0,1-.19.58,2.29,2.29,0,0,1-.32.51,1.7,1.7,0,0,1-.46.38.88.88,0,0,1-.46.15.49.49,0,0,1-.32-.14,1,1,0,0,1-.19-.37,2.62,2.62,0,0,1-.07-.52c0-.15,0-.31,0-.48s0-.34,0-.5a4.39,4.39,0,0,1,.07-.61,3.58,3.58,0,0,1,.19-.58,2.6,2.6,0,0,1,.32-.51A1.94,1.94,0,0,1,338.69,186Zm.38,2.22c0-.32,0-.62,0-.92a1.66,1.66,0,0,0,0-.24.48.48,0,0,0-.07-.16.12.12,0,0,0-.11-.07.28.28,0,0,0-.18,0,.65.65,0,0,0-.18.15,1,1,0,0,0-.11.21.86.86,0,0,0-.06.23,1.24,1.24,0,0,0,0,.27c0,.31,0,.62,0,.92a1.66,1.66,0,0,0,0,.24.48.48,0,0,0,.07.16.19.19,0,0,0,.11.07.28.28,0,0,0,.18,0,.93.93,0,0,0,.18-.16.67.67,0,0,0,.12-.2.86.86,0,0,0,.06-.23A2.45,2.45,0,0,0,339.07,188.19Z"/><path class="cls-7" d="M341.16,185.36v.41a3,3,0,0,1,0,.33,1.63,1.63,0,0,1-.11.31,1,1,0,0,1-.17.27,1.16,1.16,0,0,1-.24.2.56.56,0,0,1-.24.08.24.24,0,0,1-.17-.07.5.5,0,0,1-.11-.19,1.11,1.11,0,0,1,0-.28c0-.07,0-.14,0-.2s0-.14,0-.22a1.86,1.86,0,0,1,0-.33,1.82,1.82,0,0,1,.11-.3,1,1,0,0,1,.41-.47.52.52,0,0,1,.24-.08.24.24,0,0,1,.17.07.5.5,0,0,1,.11.19A1.88,1.88,0,0,1,341.16,185.36Zm.89-1.16a.37.37,0,0,1,.05-.11.23.23,0,0,1,.07-.07l.3-.17a.07.07,0,0,1,.06,0,.08.08,0,0,1,0,.07V184l-1.76,4.58a1.17,1.17,0,0,1,0,.11l-.08.07-.29.17h-.06a.06.06,0,0,1,0-.06,0,0,0,0,1,0,0s0,0,0,0Zm-1.6,2a.62.62,0,0,0,0,.2s.06,0,.11,0a.26.26,0,0,0,.11-.14,1.2,1.2,0,0,0,0-.23v-.37a.61.61,0,0,0,0-.19s-.06,0-.11,0a.26.26,0,0,0-.11.14,1.07,1.07,0,0,0,0,.23A2.16,2.16,0,0,0,340.45,186.15Zm2.36.17a2.94,2.94,0,0,1,0,.42c0,.11,0,.22,0,.33a1.51,1.51,0,0,1-.1.3,1.27,1.27,0,0,1-.18.27.91.91,0,0,1-.24.2.52.52,0,0,1-.24.08.21.21,0,0,1-.17-.07.46.46,0,0,1-.11-.18,2.09,2.09,0,0,1,0-.28c0-.07,0-.14,0-.2s0-.14,0-.22,0-.22,0-.33a1.63,1.63,0,0,1,.11-.31,1.06,1.06,0,0,1,.17-.26.91.91,0,0,1,.24-.2.43.43,0,0,1,.24-.08.21.21,0,0,1,.17.07.4.4,0,0,1,.11.18A2.09,2.09,0,0,1,342.81,186.32Zm-.71.8a.54.54,0,0,0,0,.19s.06,0,.11,0a.24.24,0,0,0,.11-.13,1.19,1.19,0,0,0,0-.24v-.36a.54.54,0,0,0,0-.19s-.06,0-.11,0a.24.24,0,0,0-.11.13,1.19,1.19,0,0,0,0,.24Z"/><path class="cls-7" d="M339.05,178.65v-3.07a13.34,13.34,0,0,0-4.5,4.84l1.18,1.82A9.85,9.85,0,0,1,339.05,178.65Z"/><path class="cls-1" d="M346.32,179.51a6.32,6.32,0,0,0-2.78-4.28,4.47,4.47,0,0,0-4.49.35v3.07a3.3,3.3,0,0,1,3.32-.25,4.66,4.66,0,0,1,2.05,3.16,10.82,10.82,0,0,1,.28,2.53,15.38,15.38,0,0,1-.28,2.85,17.49,17.49,0,0,1-2.05,5.52,9.85,9.85,0,0,1-3.32,3.59,3.27,3.27,0,0,1-3.32.25,4.71,4.71,0,0,1-2.06-3.16,11.32,11.32,0,0,1-.27-2.52,16.26,16.26,0,0,1,.27-2.85,17.62,17.62,0,0,1,2.06-5.53l-1.18-1.82a23.76,23.76,0,0,0-2.78,7.49,21.19,21.19,0,0,0-.37,3.86,14.81,14.81,0,0,0,.37,3.42,6.33,6.33,0,0,0,2.78,4.28,4.46,4.46,0,0,0,4.5-.34,13.27,13.27,0,0,0,4.49-4.85h0a23.52,23.52,0,0,0,2.78-7.49,21,21,0,0,0,.38-3.85A14.87,14.87,0,0,0,346.32,179.51Z"/><path class="cls-7" d="M358.1,171.09l35.65-20.58c1-.55,1.74-.16,1.74.88a3.73,3.73,0,0,1-1.74,2.89L358.1,174.86c-1,.55-1.74.16-1.74-.88A3.74,3.74,0,0,1,358.1,171.09Z"/><path class="cls-11" d="M358.1,178.68l61.73-35.62c1-.56,1.74-.16,1.74.88a3.73,3.73,0,0,1-1.74,2.88L358.1,182.45c-1,.55-1.74.16-1.74-.88A3.74,3.74,0,0,1,358.1,178.68Z"/><path class="cls-7" d="M209.28,294.74l25-14.48c1-.55,1.74-.16,1.74.88a3.71,3.71,0,0,1-1.74,2.88l-25,14.48c-1,.56-1.74.16-1.74-.88A3.71,3.71,0,0,1,209.28,294.74Z"/><path class="cls-11" d="M442.5,169.44h0m-.74.42v191a2.31,2.31,0,0,1-.94,1.62L197.21,503.09v-191a2.26,2.26,0,0,1,.94-1.62l3-1.76a5.45,5.45,0,0,0,2.54-4.4v-11a2.26,2.26,0,0,1,.94-1.62l35-20.19v10.27a2.62,2.62,0,0,0,2.57,2.84,3.14,3.14,0,0,0,1.58-.45l198-114.3M240.38,271.08h0m202-103.24a1.59,1.59,0,0,0-.78.24L243,282.77a1.62,1.62,0,0,1-.78.24c-.57,0-1-.46-1-1.24v-11c0-.78-.39-1.24-1-1.24a1.59,1.59,0,0,0-.78.24L203.86,290.3a3.85,3.85,0,0,0-1.73,3v11a3.83,3.83,0,0,1-1.74,3l-3,1.76a3.85,3.85,0,0,0-1.73,3V503.86c0,.79.39,1.24,1,1.24a1.6,1.6,0,0,0,.78-.23l244.28-141a3.85,3.85,0,0,0,1.74-3V169.08c0-.78-.39-1.24-1-1.24Z"/><path class="cls-11" d="M211.32,320.47a1.7,1.7,0,0,1-.86-.23,2,2,0,0,1-.91-1.82v-7.28a4.66,4.66,0,0,1,2.14-3.7l19.38-11.17A1.85,1.85,0,0,1,234,298v7.28a4.66,4.66,0,0,1-2.14,3.7L212.5,320.12A2.38,2.38,0,0,1,211.32,320.47Zm1.18-11.64a3,3,0,0,0-1.34,2.31v7.28c0,.28.07.41.11.43s.19,0,.42-.12l19.38-11.17a3,3,0,0,0,1.33-2.31V298c0-.28-.07-.41-.11-.43s-.18,0-.42.12Z"/><path class="cls-11" d="M213.65,311.83l12.62-7.33c.64-.37,1.16-.11,1.16.59a2.48,2.48,0,0,1-1.16,1.92l-12.62,7.33c-.64.37-1.16.1-1.16-.59A2.48,2.48,0,0,1,213.65,311.83Z"/><path class="cls-7" d="M229.21,303.3l1,1.49s.11,0,.15-.1l1.05-2.69c0-.13,0-.25-.08-.2L229.29,303A.25.25,0,0,0,229.21,303.3Z"/><path class="cls-1" d="M208.65,391c.92-.53,1.67-.1,1.67,1a3.7,3.7,0,0,1-1.67,2.9c-.93.54-1.68.11-1.68-1A3.72,3.72,0,0,1,208.65,391Z"/><path class="cls-1" d="M221.69,376c.92-.54,1.67-.1,1.67,1a3.73,3.73,0,0,1-1.67,2.91c-.93.53-1.68.1-1.68-1A3.68,3.68,0,0,1,221.69,376Z"/><path class="cls-1" d="M234.73,368.42c.92-.54,1.67-.1,1.67,1a3.73,3.73,0,0,1-1.67,2.9c-.93.53-1.68.1-1.68-1A3.68,3.68,0,0,1,234.73,368.42Z"/><path class="cls-1" d="M247.77,364.2c.92-.54,1.67-.1,1.67,1a3.73,3.73,0,0,1-1.67,2.91c-.93.53-1.68.1-1.68-1A3.68,3.68,0,0,1,247.77,364.2Z"/><path class="cls-1" d="M260.82,350.64c.93-.54,1.68-.1,1.68,1a3.71,3.71,0,0,1-1.68,2.9c-.92.53-1.67.1-1.67-1A3.7,3.7,0,0,1,260.82,350.64Z"/><path class="cls-1" d="M273.85,345.83c.92-.53,1.67-.1,1.67,1a3.7,3.7,0,0,1-1.67,2.9c-.93.54-1.68.1-1.68-1A3.71,3.71,0,0,1,273.85,345.83Z"/><path class="cls-1" d="M286.89,330.77c.92-.53,1.67-.1,1.67,1a3.7,3.7,0,0,1-1.67,2.9c-.93.54-1.68.1-1.68-1A3.72,3.72,0,0,1,286.89,330.77Z"/><path class="cls-1" d="M299.93,327c.92-.53,1.67-.1,1.67,1a3.7,3.7,0,0,1-1.67,2.9c-.93.53-1.68.1-1.68-1A3.68,3.68,0,0,1,299.93,327Z"/><path class="cls-1" d="M313,285.6c.92-.53,1.67-.1,1.67,1a3.7,3.7,0,0,1-1.67,2.9c-.93.54-1.68.1-1.68-1A3.71,3.71,0,0,1,313,285.6Z"/><path class="cls-1" d="M326,308.19c.92-.54,1.67-.1,1.67,1a3.73,3.73,0,0,1-1.67,2.9c-.93.53-1.68.1-1.68-1A3.68,3.68,0,0,1,326,308.19Z"/><path class="cls-1" d="M339.05,308.19c.92-.54,1.67-.1,1.67,1a3.73,3.73,0,0,1-1.67,2.9c-.93.53-1.68.1-1.68-1A3.68,3.68,0,0,1,339.05,308.19Z"/><path class="cls-1" d="M352.09,308.19c.92-.54,1.67-.1,1.67,1a3.73,3.73,0,0,1-1.67,2.9c-.93.53-1.68.1-1.68-1A3.68,3.68,0,0,1,352.09,308.19Z"/><path class="cls-1" d="M365.13,285.6c.92-.53,1.67-.1,1.67,1a3.7,3.7,0,0,1-1.67,2.9c-.93.54-1.68.1-1.68-1A3.71,3.71,0,0,1,365.13,285.6Z"/><path class="cls-1" d="M378.17,281.28c.92-.54,1.67-.11,1.67,1a3.73,3.73,0,0,1-1.67,2.91c-.93.53-1.68.1-1.68-1A3.68,3.68,0,0,1,378.17,281.28Z"/><path class="cls-1" d="M391.26,263c.92-.54,1.67-.1,1.67,1a3.73,3.73,0,0,1-1.67,2.91c-.93.53-1.68.1-1.68-1A3.68,3.68,0,0,1,391.26,263Z"/><ellipse class="cls-1" cx="404.25" cy="264.95" rx="2.37" ry="1.37" transform="translate(-27.32 482.59) rotate(-60)"/><ellipse class="cls-1" cx="417.29" cy="264.95" rx="2.37" ry="1.37" transform="translate(-20.8 493.88) rotate(-60)"/><path class="cls-1" d="M430.33,255.49c.93-.54,1.68-.1,1.68,1a3.71,3.71,0,0,1-1.68,2.9c-.92.53-1.68.1-1.68-1A3.68,3.68,0,0,1,430.33,255.49Z"/><path class="cls-1" d="M208.61,393.36a.39.39,0,0,1-.26-.1.4.4,0,0,1,0-.56l13.17-15.14a.39.39,0,0,1,.1-.08L234.53,370l13-4.23,13-13.49a.38.38,0,0,1,.15-.09l12.94-4.77,13-15a.36.36,0,0,1,.19-.13l12.83-3.7,13-41.2a.4.4,0,0,1,.34-.28.41.41,0,0,1,.39.2l12.92,22.38,12.84,0,12.78,0,12.92-22.38a.39.39,0,0,1,.22-.18l12.92-4.29,13-18.15a.4.4,0,0,1,.33-.17h26l12.95-7.48a.4.4,0,1,1,.4.7l-13,7.53a.46.46,0,0,1-.2.05H391.42L378.5,283.44a.43.43,0,0,1-.2.15l-12.9,4.28-13,22.45a.39.39,0,0,1-.35.2H326a.38.38,0,0,1-.35-.2l-12.58-21.79-12.77,40.54a.41.41,0,0,1-.27.26l-12.92,3.73-13,15a.36.36,0,0,1-.16.11l-13,4.78-13,13.49a.42.42,0,0,1-.17.1l-13,4.23L222,378.14l-13.12,15.08A.41.41,0,0,1,208.61,393.36Z"/><path class="cls-11" d="M208.65,401.27a.8.8,0,0,1-.4-1.5l221.68-128a.81.81,0,0,1,.8,1.4l-221.68,128A.76.76,0,0,1,208.65,401.27Z"/><path class="cls-1" d="M208.65,383.48c.92-.54,1.67-.11,1.67,1a3.73,3.73,0,0,1-1.67,2.91c-.93.53-1.68.1-1.68-1A3.68,3.68,0,0,1,208.65,383.48Z"/><path class="cls-1" d="M221.69,360.89c.92-.53,1.67-.1,1.67,1a3.71,3.71,0,0,1-1.67,2.9c-.93.53-1.68.1-1.68-1A3.68,3.68,0,0,1,221.69,360.89Z"/><ellipse class="cls-1" cx="234.73" cy="360.01" rx="2.37" ry="1.37" transform="translate(-194.41 383.31) rotate(-60)"/><path class="cls-1" d="M247.77,330.77c.92-.53,1.67-.1,1.67,1a3.7,3.7,0,0,1-1.67,2.9c-.93.54-1.68.1-1.68-1A3.72,3.72,0,0,1,247.77,330.77Z"/><path class="cls-1" d="M260.82,338.3c.93-.53,1.68-.1,1.68,1a3.68,3.68,0,0,1-1.68,2.9c-.92.54-1.67.1-1.67-1A3.73,3.73,0,0,1,260.82,338.3Z"/><path class="cls-1" d="M273.85,334.54c.93-.53,1.68-.1,1.68,1a3.7,3.7,0,0,1-1.68,2.9c-.92.53-1.67.1-1.67-1A3.7,3.7,0,0,1,273.85,334.54Z"/><path class="cls-1" d="M286.89,323.25c.92-.54,1.67-.11,1.67,1a3.73,3.73,0,0,1-1.67,2.91c-.93.53-1.68.1-1.68-1A3.68,3.68,0,0,1,286.89,323.25Z"/><path class="cls-1" d="M299.93,308.19c.92-.54,1.67-.1,1.67,1a3.73,3.73,0,0,1-1.67,2.9c-.93.53-1.68.1-1.68-1A3.68,3.68,0,0,1,299.93,308.19Z"/><path class="cls-1" d="M313,304.42c.92-.53,1.67-.1,1.67,1a3.7,3.7,0,0,1-1.67,2.9c-.93.54-1.68.1-1.68-1A3.72,3.72,0,0,1,313,304.42Z"/><path class="cls-1" d="M326,293.13c.92-.53,1.67-.1,1.67,1A3.7,3.7,0,0,1,326,297c-.93.53-1.68.1-1.68-1A3.7,3.7,0,0,1,326,293.13Z"/><path class="cls-1" d="M339.05,293.13c.92-.53,1.67-.1,1.67,1a3.7,3.7,0,0,1-1.67,2.9c-.93.54-1.68.1-1.68-1A3.7,3.7,0,0,1,339.05,293.13Z"/><path class="cls-1" d="M352.09,263c.92-.54,1.67-.1,1.67,1a3.73,3.73,0,0,1-1.67,2.91c-.93.53-1.68.1-1.68-1A3.68,3.68,0,0,1,352.09,263Z"/><path class="cls-1" d="M365.13,278c.92-.54,1.67-.1,1.67,1a3.73,3.73,0,0,1-1.67,2.91c-.93.53-1.68.1-1.68-1A3.68,3.68,0,0,1,365.13,278Z"/><path class="cls-1" d="M378.17,263c.92-.54,1.67-.1,1.67,1a3.73,3.73,0,0,1-1.67,2.91c-.93.53-1.68.1-1.68-1A3.68,3.68,0,0,1,378.17,263Z"/><path class="cls-1" d="M391.21,255.49c.92-.54,1.67-.1,1.67,1a3.73,3.73,0,0,1-1.67,2.9c-.93.53-1.68.1-1.68-1A3.68,3.68,0,0,1,391.21,255.49Z"/><path class="cls-1" d="M404.25,255.49c.92-.54,1.67-.1,1.67,1a3.73,3.73,0,0,1-1.67,2.91c-.93.53-1.68.1-1.68-1A3.68,3.68,0,0,1,404.25,255.49Z"/><path class="cls-1" d="M417.29,248c.93-.54,1.68-.1,1.68,1a3.71,3.71,0,0,1-1.68,2.9c-.93.53-1.68.1-1.68-1A3.68,3.68,0,0,1,417.29,248Z"/><path class="cls-1" d="M430.33,248c.93-.54,1.68-.1,1.68,1a3.71,3.71,0,0,1-1.68,2.9c-.92.53-1.67.1-1.67-1A3.7,3.7,0,0,1,430.33,248Z"/><path class="cls-1" d="M208.65,385.81a.35.35,0,0,1-.2-.05.41.41,0,0,1-.15-.55l13.13-22.64a.4.4,0,0,1,.27-.19l12.75-2.73,13-27.11a.36.36,0,0,1,.24-.21.4.4,0,0,1,.32,0l12.91,7.45,12.77-3.7,13-11.22,13-15a.41.41,0,0,1,.2-.12L312.77,306l13-11.24a.4.4,0,0,1,.26-.1h12.78l12.93-29.87a.42.42,0,0,1,.31-.24.39.39,0,0,1,.36.14l12.74,14.71,12.74-14.71a.43.43,0,0,1,.1-.09l13.08-7.55a.39.39,0,0,1,.2-.06h12.94l12.9-7.44a.36.36,0,0,1,.2-.06h13a.4.4,0,0,1,.4.4.39.39,0,0,1-.4.4H417.4l-12.9,7.45a.39.39,0,0,1-.2.06H391.36l-12.93,7.46-13,15a.4.4,0,0,1-.6,0L352.2,265.7l-12.78,29.52a.41.41,0,0,1-.37.25H326.16l-12.93,11.19a.28.28,0,0,1-.15.08l-12.93,3.74-13,15-13.06,11.33a.53.53,0,0,1-.15.08l-13,3.77a.38.38,0,0,1-.31,0l-12.68-7.32-12.85,26.91a.42.42,0,0,1-.28.22L222,363.13l-13,22.48A.38.38,0,0,1,208.65,385.81Z"/><g class="cls-19"><path d="M208.65,383.48c.92-.54,1.67-.11,1.67,1a3.73,3.73,0,0,1-1.67,2.91c-.93.53-1.68.1-1.68-1A3.68,3.68,0,0,1,208.65,383.48Z"/><path d="M221.69,360.89c.92-.53,1.67-.1,1.67,1a3.71,3.71,0,0,1-1.67,2.9c-.93.53-1.68.1-1.68-1A3.68,3.68,0,0,1,221.69,360.89Z"/><ellipse cx="234.73" cy="360.01" rx="2.37" ry="1.37" transform="translate(-194.41 383.31) rotate(-60)"/><path d="M247.77,330.77c.92-.53,1.67-.1,1.67,1a3.7,3.7,0,0,1-1.67,2.9c-.93.54-1.68.1-1.68-1A3.72,3.72,0,0,1,247.77,330.77Z"/><path d="M260.82,338.3c.93-.53,1.68-.1,1.68,1a3.68,3.68,0,0,1-1.68,2.9c-.92.54-1.67.1-1.67-1A3.73,3.73,0,0,1,260.82,338.3Z"/><path d="M273.85,334.54c.93-.53,1.68-.1,1.68,1a3.7,3.7,0,0,1-1.68,2.9c-.92.53-1.67.1-1.67-1A3.7,3.7,0,0,1,273.85,334.54Z"/><path d="M286.89,323.25c.92-.54,1.67-.11,1.67,1a3.73,3.73,0,0,1-1.67,2.91c-.93.53-1.68.1-1.68-1A3.68,3.68,0,0,1,286.89,323.25Z"/><path d="M299.93,308.19c.92-.54,1.67-.1,1.67,1a3.73,3.73,0,0,1-1.67,2.9c-.93.53-1.68.1-1.68-1A3.68,3.68,0,0,1,299.93,308.19Z"/><path d="M313,304.42c.92-.53,1.67-.1,1.67,1a3.7,3.7,0,0,1-1.67,2.9c-.93.54-1.68.1-1.68-1A3.72,3.72,0,0,1,313,304.42Z"/><path d="M326,293.13c.92-.53,1.67-.1,1.67,1A3.7,3.7,0,0,1,326,297c-.93.53-1.68.1-1.68-1A3.7,3.7,0,0,1,326,293.13Z"/><path d="M339.05,293.13c.92-.53,1.67-.1,1.67,1a3.7,3.7,0,0,1-1.67,2.9c-.93.54-1.68.1-1.68-1A3.7,3.7,0,0,1,339.05,293.13Z"/><path d="M352.09,263c.92-.54,1.67-.1,1.67,1a3.73,3.73,0,0,1-1.67,2.91c-.93.53-1.68.1-1.68-1A3.68,3.68,0,0,1,352.09,263Z"/><path d="M365.13,278c.92-.54,1.67-.1,1.67,1a3.73,3.73,0,0,1-1.67,2.91c-.93.53-1.68.1-1.68-1A3.68,3.68,0,0,1,365.13,278Z"/><path d="M378.17,263c.92-.54,1.67-.1,1.67,1a3.73,3.73,0,0,1-1.67,2.91c-.93.53-1.68.1-1.68-1A3.68,3.68,0,0,1,378.17,263Z"/><path d="M391.21,255.49c.92-.54,1.67-.1,1.67,1a3.73,3.73,0,0,1-1.67,2.9c-.93.53-1.68.1-1.68-1A3.68,3.68,0,0,1,391.21,255.49Z"/><path d="M404.25,255.49c.92-.54,1.67-.1,1.67,1a3.73,3.73,0,0,1-1.67,2.91c-.93.53-1.68.1-1.68-1A3.68,3.68,0,0,1,404.25,255.49Z"/><path d="M417.29,248c.93-.54,1.68-.1,1.68,1a3.71,3.71,0,0,1-1.68,2.9c-.93.53-1.68.1-1.68-1A3.68,3.68,0,0,1,417.29,248Z"/><path d="M430.33,248c.93-.54,1.68-.1,1.68,1a3.71,3.71,0,0,1-1.68,2.9c-.92.53-1.67.1-1.67-1A3.7,3.7,0,0,1,430.33,248Z"/><path d="M208.65,385.81a.35.35,0,0,1-.2-.05.41.41,0,0,1-.15-.55l13.13-22.64a.4.4,0,0,1,.27-.19l12.75-2.73,13-27.11a.36.36,0,0,1,.24-.21.4.4,0,0,1,.32,0l12.91,7.45,12.77-3.7,13-11.22,13-15a.41.41,0,0,1,.2-.12L312.77,306l13-11.24a.4.4,0,0,1,.26-.1h12.78l12.93-29.87a.42.42,0,0,1,.31-.24.39.39,0,0,1,.36.14l12.74,14.71,12.74-14.71a.43.43,0,0,1,.1-.09l13.08-7.55a.39.39,0,0,1,.2-.06h12.94l12.9-7.44a.36.36,0,0,1,.2-.06h13a.4.4,0,0,1,.4.4.39.39,0,0,1-.4.4H417.4l-12.9,7.45a.39.39,0,0,1-.2.06H391.36l-12.93,7.46-13,15a.4.4,0,0,1-.6,0L352.2,265.7l-12.78,29.52a.41.41,0,0,1-.37.25H326.16l-12.93,11.19a.28.28,0,0,1-.15.08l-12.93,3.74-13,15-13.06,11.33a.53.53,0,0,1-.15.08l-13,3.77a.38.38,0,0,1-.31,0l-12.68-7.32-12.85,26.91a.42.42,0,0,1-.28.22L222,363.13l-13,22.48A.38.38,0,0,1,208.65,385.81Z"/></g><path class="cls-11" d="M215.48,327.61l12.62-7.33c.64-.37,1.16-.1,1.16.59a2.48,2.48,0,0,1-1.16,1.92l-12.62,7.33c-.64.37-1.16.11-1.16-.59A2.48,2.48,0,0,1,215.48,327.61Z"/><path class="cls-1" d="M208.65,330.78c.92-.54,1.67-.11,1.67,1a3.7,3.7,0,0,1-1.67,2.9c-.93.54-1.68.11-1.68-1A3.68,3.68,0,0,1,208.65,330.78Z"/><path class="cls-14" d="M208.65,330.78c.92-.54,1.67-.11,1.67,1a3.7,3.7,0,0,1-1.67,2.9c-.93.54-1.68.11-1.68-1A3.68,3.68,0,0,1,208.65,330.78Z"/><path class="cls-11" d="M215.48,335.12l12.62-7.33c.64-.37,1.16-.1,1.16.59a2.48,2.48,0,0,1-1.16,1.92l-12.62,7.33c-.64.37-1.16.1-1.16-.59A2.48,2.48,0,0,1,215.48,335.12Z"/><path class="cls-1" d="M208.65,338.3c.92-.53,1.67-.1,1.67,1a3.7,3.7,0,0,1-1.67,2.9c-.93.54-1.68.1-1.68-1A3.72,3.72,0,0,1,208.65,338.3Z"/><path class="cls-1" d="M208.65,438.62a.43.43,0,0,1-.28-.11.41.41,0,0,1,0-.57l6.62-6.8,6.49-.83,6.56-8.47,6.57.9L241,417l6.51-3.91,6.64-9.2,6.6,2.07,6.33-5.66a.4.4,0,0,1,.57,0,.41.41,0,0,1,0,.57l-6.68,6-6.48-2L248,413.72l-6.52,3.9-6.59,6-6.48-.89-6.48,8.37-6.54.83-6.42,6.6A.42.42,0,0,1,208.65,438.62Z"/><path class="cls-7" d="M211.23,416.6l.16-.14.18-.13a1.94,1.94,0,0,1,1-.29,1.16,1.16,0,0,1,.78.29,1.84,1.84,0,0,1,.51.83,3.81,3.81,0,0,1,.19,1.29,5.93,5.93,0,0,1-.19,1.5,6.65,6.65,0,0,1-.51,1.42,5.64,5.64,0,0,1-.78,1.2,3.52,3.52,0,0,1-1,.84,1.87,1.87,0,0,1-1,.3,1.12,1.12,0,0,1-.78-.3,1.9,1.9,0,0,1-.52-.82,4.1,4.1,0,0,1-.18-1.29,5.69,5.69,0,0,1,.06-.83c0-.27.1-.53.16-.78s.14-.51.23-.75.16-.48.24-.7l1.74-4.94.11-.25a.44.44,0,0,1,.19-.22l.54-.31c.06,0,.1,0,.14,0a.27.27,0,0,1,.05.19.49.49,0,0,1,0,.13.25.25,0,0,1,0,.09ZM210,420.78a2.55,2.55,0,0,0,.11.77,1.43,1.43,0,0,0,.31.53.81.81,0,0,0,.5.21,1.21,1.21,0,0,0,.65-.2,2.45,2.45,0,0,0,.65-.56,3.12,3.12,0,0,0,.49-.78,4.4,4.4,0,0,0,.32-.88,4,4,0,0,0,.1-.9,2.57,2.57,0,0,0-.1-.77,1.25,1.25,0,0,0-.32-.53.71.71,0,0,0-.49-.21,1.21,1.21,0,0,0-.65.2,2.14,2.14,0,0,0-.65.56,3.64,3.64,0,0,0-.5.77,5.2,5.2,0,0,0-.31.89A4,4,0,0,0,210,420.78Z"/><path class="cls-7" d="M215.66,418.42a1.64,1.64,0,0,0,.14.39.48.48,0,0,0,.25.27.75.75,0,0,0,.46,0,2.43,2.43,0,0,0,.73-.3,2.77,2.77,0,0,0,.56-.44,2.91,2.91,0,0,0,.47-.61,3.56,3.56,0,0,0,.32-.77,3.16,3.16,0,0,0,.12-.9,1.82,1.82,0,0,0-.12-.73.68.68,0,0,0-.31-.35.78.78,0,0,0-.46,0,2.54,2.54,0,0,0-.58.25l-.79.46a.15.15,0,0,1-.19,0,.29.29,0,0,1-.07-.23v-.53a.65.65,0,0,1,.05-.27c0-.1.07-.18.1-.26l1.72-3.84-2.75,1.59a.14.14,0,0,1-.18,0,.3.3,0,0,1-.08-.23v-.53a.72.72,0,0,1,.08-.32.46.46,0,0,1,.18-.22l3.76-2.18a.14.14,0,0,1,.18,0,.3.3,0,0,1,.08.23v.53a1.1,1.1,0,0,1-.05.29,1.58,1.58,0,0,1-.13.31l-1.68,3.78a2,2,0,0,1,.87-.28,1,1,0,0,1,.68.21,1.57,1.57,0,0,1,.43.69,3.47,3.47,0,0,1,.16,1.15,5.47,5.47,0,0,1-.19,1.46,6.19,6.19,0,0,1-.51,1.29,5.06,5.06,0,0,1-.75,1.06,4.21,4.21,0,0,1-.92.75,2.82,2.82,0,0,1-1.11.41,1.16,1.16,0,0,1-.76-.16,1.2,1.2,0,0,1-.45-.58,2.53,2.53,0,0,1-.16-.86.68.68,0,0,1,.07-.26.35.35,0,0,1,.15-.18l.43-.25c.07-.05.13-.05.17,0A.24.24,0,0,1,215.66,418.42Z"/><path class="cls-7" d="M221.34,415.14a2.67,2.67,0,0,0,.13.4.62.62,0,0,0,.26.27.73.73,0,0,0,.45,0,2,2,0,0,0,.73-.3,2.84,2.84,0,0,0,.57-.43,2.94,2.94,0,0,0,.46-.62,2.85,2.85,0,0,0,.32-.76,3.26,3.26,0,0,0,.12-.9,1.89,1.89,0,0,0-.11-.74.68.68,0,0,0-.31-.35.72.72,0,0,0-.46,0,2.16,2.16,0,0,0-.59.24l-.79.46a.14.14,0,0,1-.18,0,.33.33,0,0,1-.08-.24v-.53a.7.7,0,0,1,.06-.27,2,2,0,0,1,.1-.26l1.71-3.84L221,408.87a.17.17,0,0,1-.19,0,.33.33,0,0,1-.07-.24v-.53a.77.77,0,0,1,.07-.32.53.53,0,0,1,.19-.22l3.76-2.17a.14.14,0,0,1,.18,0,.32.32,0,0,1,.07.23v.53a1,1,0,0,1,0,.29l-.13.31-1.69,3.78a2.06,2.06,0,0,1,.87-.27,1,1,0,0,1,.68.21,1.42,1.42,0,0,1,.44.68,3.49,3.49,0,0,1,.16,1.16,5.45,5.45,0,0,1-.19,1.45,6.19,6.19,0,0,1-.51,1.29,4.85,4.85,0,0,1-.76,1.06,3.38,3.38,0,0,1-.92.75,2.59,2.59,0,0,1-1.1.41,1.09,1.09,0,0,1-.76-.16,1.16,1.16,0,0,1-.45-.58,2.52,2.52,0,0,1-.16-.85.54.54,0,0,1,.07-.27.45.45,0,0,1,.14-.18l.44-.25c.07,0,.13,0,.17,0A.27.27,0,0,1,221.34,415.14Z"/><path class="cls-11" d="M209.83,443.8l56.34-32.65c.64-.37,1.16-.1,1.16.59a2.48,2.48,0,0,1-1.16,1.92l-56.34,32.65c-.64.37-1.16.11-1.16-.58A2.49,2.49,0,0,1,209.83,443.8Z"/><path class="cls-11" d="M209.83,406.14l12.62-7.33c.64-.37,1.16-.1,1.16.59a2.48,2.48,0,0,1-1.16,1.92l-12.62,7.33c-.64.37-1.16.11-1.16-.59A2.48,2.48,0,0,1,209.83,406.14Z"/><path class="cls-1" d="M208.65,483.76a.39.39,0,0,1-.28-.12.41.41,0,0,1,0-.57l6.62-6.8,6.54-.83,6.58-5.75,6.35-1.73,6.62-13.18L247.7,458l6.4-5.64.11,0,6.36-1.21L267,440.07a.4.4,0,1,1,.7.4l-6.6,11.41-6.61,1.26L247.83,459l-6.4-3.14L235,468.64l-6.61,1.8-6.54,5.77-6.5.82-6.42,6.6A.43.43,0,0,1,208.65,483.76Z"/><g class="cls-19"><path d="M208.65,483.76a.39.39,0,0,1-.28-.12.41.41,0,0,1,0-.57l6.62-6.8,6.54-.83,6.58-5.75,6.35-1.73,6.62-13.18L247.7,458l6.4-5.64.11,0,6.36-1.21L267,440.07a.4.4,0,1,1,.7.4l-6.6,11.41-6.61,1.26L247.83,459l-6.4-3.14L235,468.64l-6.61,1.8-6.54,5.77-6.5.82-6.42,6.6A.43.43,0,0,1,208.65,483.76Z"/></g><path class="cls-7" d="M212,467.77a.79.79,0,0,1-.08.32.46.46,0,0,1-.18.22l-.39.23a.15.15,0,0,1-.18,0,.33.33,0,0,1-.08-.24V460.2l-1.54,2.69c-.06.12-.12.18-.19.2a.15.15,0,0,1-.18,0l-.22-.33a.35.35,0,0,1-.06-.26.92.92,0,0,1,.1-.32l2-3.59a.83.83,0,0,1,.16-.19l.15-.11.39-.22a.14.14,0,0,1,.18,0,.33.33,0,0,1,.08.24Z"/><path class="cls-7" d="M216.15,460.35a6.38,6.38,0,0,0,.43-1.06,4.36,4.36,0,0,0,.14-1.15,1.72,1.72,0,0,0-.3-1.13c-.19-.23-.5-.23-.93,0a2.38,2.38,0,0,0-.57.47,3.33,3.33,0,0,0-.39.63,4.49,4.49,0,0,0-.25.73c-.06.26-.11.52-.15.77a.94.94,0,0,1-.09.31.52.52,0,0,1-.15.17l-.44.26a.12.12,0,0,1-.15,0,.28.28,0,0,1-.06-.2,5.36,5.36,0,0,1,.16-1.19,6.83,6.83,0,0,1,.44-1.27,5.89,5.89,0,0,1,.7-1.15,3.13,3.13,0,0,1,1-.84,1.71,1.71,0,0,1,.93-.29.94.94,0,0,1,.66.29,1.71,1.71,0,0,1,.41.77,4.23,4.23,0,0,1,.14,1.14,7.85,7.85,0,0,1,0,.87,4.57,4.57,0,0,1-.16.82,5.91,5.91,0,0,1-.28.84,8.77,8.77,0,0,1-.42.9l-2.13,4.28,2.92-1.68a.14.14,0,0,1,.18,0,.32.32,0,0,1,.08.23v.53a.8.8,0,0,1-.08.33.51.51,0,0,1-.18.22l-4.11,2.37a.14.14,0,0,1-.18,0,.33.33,0,0,1-.08-.24v-.52a1.06,1.06,0,0,1,.05-.31,3.17,3.17,0,0,1,.16-.37Z"/><path class="cls-7" d="M223.7,455c0,.44,0,.85,0,1.24s0,.8,0,1.25a10.39,10.39,0,0,1-.16,1.68,7.9,7.9,0,0,1-.44,1.54,5.45,5.45,0,0,1-.75,1.29,3.88,3.88,0,0,1-1.09.93,1.89,1.89,0,0,1-1.08.32,1.1,1.1,0,0,1-.75-.42,2.52,2.52,0,0,1-.44-1,7.42,7.42,0,0,1-.16-1.5c0-.44,0-.85,0-1.24s0-.8,0-1.25a10.39,10.39,0,0,1,.16-1.68,7.09,7.09,0,0,1,.44-1.54,5.45,5.45,0,0,1,.75-1.29,3.77,3.77,0,0,1,1.08-.95,1.88,1.88,0,0,1,1.09-.31,1.12,1.12,0,0,1,.75.43,2.66,2.66,0,0,1,.44,1A7.42,7.42,0,0,1,223.7,455Zm-4,4.78a3,3,0,0,0,.4,1.82c.26.29.64.29,1.13,0a2.68,2.68,0,0,0,1.13-1.32,5.87,5.87,0,0,0,.41-2.29c0-.44,0-.86,0-1.24s0-.8,0-1.24a3,3,0,0,0-.41-1.83c-.25-.3-.63-.3-1.13,0a2.7,2.7,0,0,0-1.13,1.32,5.93,5.93,0,0,0-.4,2.3c0,.44,0,.85,0,1.24S219.72,459.36,219.73,459.8Z"/><path class="cls-11" d="M209.83,488.94l56.34-32.65c.64-.37,1.16-.11,1.16.58a2.47,2.47,0,0,1-1.16,1.92l-56.34,32.66c-.64.36-1.16.1-1.16-.59A2.48,2.48,0,0,1,209.83,488.94Z"/><path class="cls-11" d="M209.83,451.27,222.45,444c.64-.37,1.16-.11,1.16.58a2.47,2.47,0,0,1-1.16,1.92l-12.62,7.33c-.64.37-1.16.11-1.16-.58A2.49,2.49,0,0,1,209.83,451.27Z"/><path class="cls-1" d="M286.89,393.36a.37.37,0,0,1-.31-.15.41.41,0,0,1,.06-.57l6.52-5.2,6.57-7.5,6.66-1,6.36-1.43,6.58-7.78,6.48,1.15,6.5-10.29,6.6.1L345.3,355a.42.42,0,0,1,.57,0,.41.41,0,0,1,0,.57l-6.62,5.92-6.47-.1-6.54,10.36-6.56-1.16-6.46,7.63-6.65,1.5-6.41.93L293.71,388l-6.57,5.25A.38.38,0,0,1,286.89,393.36Z"/><path class="cls-7" d="M289.47,371.34s.1-.09.16-.15l.18-.12a1.87,1.87,0,0,1,1-.3,1.22,1.22,0,0,1,.78.3,1.8,1.8,0,0,1,.51.82,3.81,3.81,0,0,1,.19,1.29,5.93,5.93,0,0,1-.19,1.5,6.74,6.74,0,0,1-.51,1.43,6.19,6.19,0,0,1-.78,1.2,3.88,3.88,0,0,1-1,.84,2.07,2.07,0,0,1-1,.3,1.22,1.22,0,0,1-.78-.3,1.94,1.94,0,0,1-.52-.83,4,4,0,0,1-.18-1.29,5.55,5.55,0,0,1,.06-.82c0-.27.1-.53.16-.79s.14-.5.23-.74.16-.48.24-.71l1.74-4.94c0-.06.07-.14.11-.24a.41.41,0,0,1,.19-.22l.54-.31a.1.1,0,0,1,.14,0,.3.3,0,0,1,.05.2.53.53,0,0,1,0,.13.36.36,0,0,1,0,.09Zm-1.23,4.17a2.62,2.62,0,0,0,.11.78,1.38,1.38,0,0,0,.31.52.76.76,0,0,0,.5.21,1.19,1.19,0,0,0,.65-.19,2.45,2.45,0,0,0,.65-.56,3.53,3.53,0,0,0,.49-.78,4.63,4.63,0,0,0,.32-.88,4.07,4.07,0,0,0,.1-.9,2.59,2.59,0,0,0-.1-.78,1.32,1.32,0,0,0-.32-.53.75.75,0,0,0-.49-.2,1.19,1.19,0,0,0-.65.19,2.45,2.45,0,0,0-.65.56,3.71,3.71,0,0,0-.5.78,5.09,5.09,0,0,0-.31.88A4.1,4.1,0,0,0,288.24,375.51Z"/><path class="cls-7" d="M296.08,369a6.74,6.74,0,0,0,.43-1.06,4.36,4.36,0,0,0,.14-1.15,1.78,1.78,0,0,0-.29-1.13c-.2-.24-.51-.23-.94,0a2,2,0,0,0-.57.47,3.33,3.33,0,0,0-.39.63,4.18,4.18,0,0,0-.25.73c-.06.26-.11.51-.15.77a.94.94,0,0,1-.09.31.52.52,0,0,1-.15.17l-.44.25a.11.11,0,0,1-.15,0,.25.25,0,0,1-.06-.19,5.36,5.36,0,0,1,.16-1.19,6.59,6.59,0,0,1,.44-1.27,5.68,5.68,0,0,1,.7-1.16,3.42,3.42,0,0,1,.95-.84,1.78,1.78,0,0,1,.93-.28,1,1,0,0,1,.66.29,1.67,1.67,0,0,1,.41.76,4.34,4.34,0,0,1,.14,1.14,7.89,7.89,0,0,1-.05.88,4.57,4.57,0,0,1-.16.82,5.79,5.79,0,0,1-.28.83,8.77,8.77,0,0,1-.42.9L294.52,374l2.92-1.69a.14.14,0,0,1,.18,0,.3.3,0,0,1,.08.23v.53a.72.72,0,0,1-.08.32.54.54,0,0,1-.18.23L293.33,376a.14.14,0,0,1-.18,0,.33.33,0,0,1-.08-.24v-.53a.94.94,0,0,1,.05-.3,3.21,3.21,0,0,1,.16-.38Z"/><path class="cls-7" d="M302.57,360.35a.14.14,0,0,1,.18,0,.3.3,0,0,1,.07.23v.53c0,.09,0,.19,0,.3s-.05.22-.08.35l-2.12,9.64a1.76,1.76,0,0,1-.1.3.38.38,0,0,1-.18.21l-.43.25a.13.13,0,0,1-.17,0,.33.33,0,0,1-.06-.21v-.07a.45.45,0,0,1,0-.13l2.12-9.66-3.13,1.81a.15.15,0,0,1-.18,0,.33.33,0,0,1-.07-.24v-.53a.74.74,0,0,1,.07-.32.54.54,0,0,1,.18-.23Z"/><path class="cls-11" d="M288.07,398.54l56.34-32.65c.64-.37,1.16-.11,1.16.58a2.49,2.49,0,0,1-1.16,1.93l-56.34,32.65c-.64.37-1.16.1-1.16-.59A2.48,2.48,0,0,1,288.07,398.54Z"/><path class="cls-11" d="M288.07,360.88l12.62-7.33c.64-.37,1.16-.11,1.16.58a2.49,2.49,0,0,1-1.16,1.93l-12.62,7.32c-.64.37-1.16.11-1.16-.58A2.47,2.47,0,0,1,288.07,360.88Z"/><path class="cls-1" d="M286.89,438.49a.4.4,0,0,1-.34-.61L293.21,427l6.7,1.24,6.31-1.72,6.52-8,6.48-1.64,6.59-11.74,6.74,2,6.33-1.2,6.42-5.72a.4.4,0,0,1,.57,0,.41.41,0,0,1,0,.57l-6.59,5.86-.11,0-6.63,1.26-6.31-1.83-6.45,11.49-6.56,1.65-6.51,7.95-.13,0L300,429h-.09l-6.25-1.16-6.38,10.46A.4.4,0,0,1,286.89,438.49Z"/><g class="cls-19"><path d="M286.89,438.49a.4.4,0,0,1-.34-.61L293.21,427l6.7,1.24,6.31-1.72,6.52-8,6.48-1.64,6.59-11.74,6.74,2,6.33-1.2,6.42-5.72a.4.4,0,0,1,.57,0,.41.41,0,0,1,0,.57l-6.59,5.86-.11,0-6.63,1.26-6.31-1.83-6.45,11.49-6.56,1.65-6.51,7.95-.13,0L300,429h-.09l-6.25-1.16-6.38,10.46A.4.4,0,0,1,286.89,438.49Z"/></g><path class="cls-7" d="M289.9,419.55a.49.49,0,0,1-.13.1l-.12.08a2,2,0,0,1-.89.29,1.2,1.2,0,0,1-.76-.23,1.6,1.6,0,0,1-.54-.78,3.7,3.7,0,0,1-.21-1.36,6.27,6.27,0,0,1,.19-1.49,7.08,7.08,0,0,1,.52-1.4,6,6,0,0,1,.77-1.16,3.39,3.39,0,0,1,.92-.8,1.94,1.94,0,0,1,1-.31,1.09,1.09,0,0,1,.76.29,1.86,1.86,0,0,1,.48.82,4.38,4.38,0,0,1,.16,1.28,4.45,4.45,0,0,1-.07.79c-.05.28-.12.56-.19.84s-.16.55-.25.81-.18.52-.25.74L289.54,423c0,.06-.06.14-.1.24a.41.41,0,0,1-.19.22l-.55.31a.1.1,0,0,1-.14,0,.34.34,0,0,1-.05-.2.37.37,0,0,1,0-.12.29.29,0,0,1,0-.1Zm1.24-4.14a2.6,2.6,0,0,0-.11-.79,1.27,1.27,0,0,0-.31-.51.67.67,0,0,0-.47-.17,1.21,1.21,0,0,0-.6.18,2.44,2.44,0,0,0-.61.51,3.88,3.88,0,0,0-.47.72,4,4,0,0,0-.3.86,4.13,4.13,0,0,0-.11.92,2.6,2.6,0,0,0,.11.79,1.06,1.06,0,0,0,.3.5.67.67,0,0,0,.47.18,1.22,1.22,0,0,0,.61-.19,2.33,2.33,0,0,0,.6-.51,3.31,3.31,0,0,0,.47-.72,4.78,4.78,0,0,0,.31-.85A4.06,4.06,0,0,0,291.14,415.41Z"/><path class="cls-7" d="M293.62,418.45a1.87,1.87,0,0,0,.13.4.57.57,0,0,0,.26.27.79.79,0,0,0,.45,0,2.17,2.17,0,0,0,.73-.31,2.53,2.53,0,0,0,.56-.43,2.67,2.67,0,0,0,.47-.62,3.21,3.21,0,0,0,.32-.76,3.26,3.26,0,0,0,.12-.9,2.1,2.1,0,0,0-.11-.74.68.68,0,0,0-.31-.35.75.75,0,0,0-.47,0,2.1,2.1,0,0,0-.58.24l-.79.46a.14.14,0,0,1-.18,0,.33.33,0,0,1-.08-.24V415a.92.92,0,0,1,.05-.28c0-.09.07-.18.1-.26l1.72-3.84-2.75,1.59a.14.14,0,0,1-.18,0,.33.33,0,0,1-.07-.24v-.53a.77.77,0,0,1,.07-.32.46.46,0,0,1,.18-.22l3.76-2.17a.14.14,0,0,1,.18,0,.33.33,0,0,1,.08.24v.52a1,1,0,0,1,0,.29,2,2,0,0,1-.12.31l-1.69,3.78a2.06,2.06,0,0,1,.87-.27,1,1,0,0,1,.68.21,1.47,1.47,0,0,1,.44.69,3.66,3.66,0,0,1,.16,1.15,5.82,5.82,0,0,1-.19,1.45,6,6,0,0,1-.52,1.3,5,5,0,0,1-.75,1.05,3.8,3.8,0,0,1-.92.76,2.7,2.7,0,0,1-1.1.4,1.09,1.09,0,0,1-.76-.16,1.16,1.16,0,0,1-.45-.58,2.47,2.47,0,0,1-.16-.85.66.66,0,0,1,.06-.27.45.45,0,0,1,.15-.18l.44-.25a.13.13,0,0,1,.17,0A.34.34,0,0,1,293.62,418.45Z"/><path class="cls-11" d="M288.07,443.67,344.41,411c.64-.37,1.16-.11,1.16.59a2.48,2.48,0,0,1-1.16,1.92l-56.34,32.65c-.64.37-1.16.11-1.16-.59A2.48,2.48,0,0,1,288.07,443.67Z"/><path class="cls-11" d="M288.07,406l12.62-7.33c.64-.37,1.16-.11,1.16.59a2.48,2.48,0,0,1-1.16,1.92l-12.62,7.33c-.64.37-1.16.1-1.16-.59A2.48,2.48,0,0,1,288.07,406Z"/><path class="cls-1" d="M371.65,320.09c2.78-1.61,5.34-1.69,7.43-.55l-7.43,20Z"/><path class="cls-1" d="M364.22,328.12a22,22,0,0,1,7.43-8v19.48Z"/><path class="cls-1" d="M359.62,340.5a38.77,38.77,0,0,1,4.6-12.38l7.43,11.45Z"/><path class="cls-14" d="M364.22,328.12a38.77,38.77,0,0,0-4.6,12.38l12-.93V320.09A22,22,0,0,0,364.22,328.12Z"/><path class="cls-1" d="M379.08,319.54c2.14,1.16,3.77,3.6,4.6,7.07l-12,13Z"/><path class="cls-1" d="M359.62,352.54a24.25,24.25,0,0,1-.63-5.66,34.75,34.75,0,0,1,.63-6.38l12-.93Z"/><path class="cls-1" d="M383.68,338.65a38.77,38.77,0,0,1-4.6,12.38l-7.43-11.46Z"/><path class="cls-1" d="M371.65,359.06c-2.78,1.61-5.34,1.69-7.43.55l7.43-20Z"/><path class="cls-1" d="M359.62,352.54l12-13-7.43,20C362.08,358.45,360.45,356,359.62,352.54Z"/><path class="cls-1" d="M383.68,326.61a24.25,24.25,0,0,1,.63,5.66,34.75,34.75,0,0,1-.63,6.38l-12,.92Z"/><path class="cls-1" d="M379.08,351a22,22,0,0,1-7.43,8V339.57Z"/><path class="cls-7" d="M365.34,369,378,361.67c.64-.37,1.16-.11,1.16.59a2.48,2.48,0,0,1-1.16,1.92l-12.62,7.33c-.64.37-1.16.1-1.16-.59A2.48,2.48,0,0,1,365.34,369Z"/><path class="cls-11" d="M362.55,378.16l18.2-10.56c.64-.37,1.16-.11,1.16.59a2.48,2.48,0,0,1-1.16,1.92l-18.2,10.56c-.64.37-1.16.1-1.15-.59A2.47,2.47,0,0,1,362.55,378.16Z"/><path class="cls-11" d="M362.55,385.7l18.2-10.55c.64-.37,1.16-.11,1.16.58a2.49,2.49,0,0,1-1.16,1.93l-18.2,10.55c-.64.37-1.16.11-1.15-.58A2.48,2.48,0,0,1,362.55,385.7Z"/><path class="cls-11" d="M362.55,393.25l18.2-10.56c.64-.37,1.16-.1,1.16.59a2.48,2.48,0,0,1-1.16,1.92l-18.2,10.56c-.64.37-1.16.11-1.15-.59A2.47,2.47,0,0,1,362.55,393.25Z"/><path class="cls-1" d="M417.29,293.64c2.78-1.6,5.34-1.69,7.43-.55l-7.43,20Z"/><path class="cls-1" d="M409.86,301.67a22.12,22.12,0,0,1,7.43-8v19.49Z"/><path class="cls-1" d="M405.26,314.05a38.77,38.77,0,0,1,4.6-12.38l7.43,11.46Z"/><path class="cls-1" d="M424.72,293.09c2.14,1.16,3.77,3.6,4.6,7.07l-12,13Z"/><path class="cls-1" d="M405.26,326.09a24.18,24.18,0,0,1-.63-5.66,34.75,34.75,0,0,1,.63-6.38l12-.92Z"/><path class="cls-1" d="M429.32,312.2a38.77,38.77,0,0,1-4.6,12.38l-7.43-11.45Z"/><path class="cls-1" d="M417.29,332.61c-2.78,1.61-5.34,1.69-7.43.56l7.43-20Z"/><path class="cls-1" d="M405.26,326.09l12-13-7.43,20C407.72,332,406.09,329.56,405.26,326.09Z"/><path class="cls-14" d="M409.86,301.67a38.77,38.77,0,0,0-4.6,12.38,34.75,34.75,0,0,0-.63,6.38,24.18,24.18,0,0,0,.63,5.66c.83,3.47,2.46,5.92,4.6,7.08l7.43-20V293.64A22.12,22.12,0,0,0,409.86,301.67Z"/><path class="cls-1" d="M429.32,300.16a24.25,24.25,0,0,1,.63,5.66,34.75,34.75,0,0,1-.63,6.38l-12,.93Z"/><path class="cls-1" d="M424.72,324.58a22,22,0,0,1-7.43,8V313.13Z"/><path class="cls-7" d="M411,342.65l12.62-7.33c.64-.37,1.16-.11,1.16.59a2.48,2.48,0,0,1-1.16,1.92L411,345.16c-.64.37-1.16.1-1.16-.59A2.48,2.48,0,0,1,411,342.65Z"/><path class="cls-11" d="M408.19,351.81l18.2-10.56c.64-.37,1.16-.11,1.16.59a2.48,2.48,0,0,1-1.16,1.92l-18.2,10.56c-.64.37-1.15.1-1.15-.59A2.47,2.47,0,0,1,408.19,351.81Z"/><path class="cls-11" d="M408.19,359.35l18.2-10.55c.64-.37,1.16-.11,1.16.58a2.49,2.49,0,0,1-1.16,1.93l-18.2,10.55c-.64.37-1.15.11-1.15-.58A2.48,2.48,0,0,1,408.19,359.35Z"/><path class="cls-11" d="M408.19,366.9l18.2-10.56c.64-.37,1.16-.1,1.16.59a2.48,2.48,0,0,1-1.16,1.92l-18.2,10.56c-.64.37-1.15.1-1.15-.59A2.47,2.47,0,0,1,408.19,366.9Z"/></g><g id="Glass"><path class="cls-1" d="M417.05,554.91c.2-6.18-3.88-13.84-9.13-17.1-2.59-1.62-5-1.85-6.76-.94h0c-10.74,5.39-86.21,53.79-91,56.17l-.07,0a3.47,3.47,0,0,0-1.53,3.11,10.8,10.8,0,0,0,4.6,8.62,3.41,3.41,0,0,0,3.45.45l.07,0c7.64-4.21,82.12-36,97.35-44.12h0C415.79,560.13,416.94,558,417.05,554.91Z"/><path class="cls-20" d="M414.08,544.48a19.22,19.22,0,0,0-6.16-6.67c-2.58-1.61-5-1.85-6.74-.95L401,537c-9.8,5-66,40.84-84.87,52.49l-.12.08-.77.47-.23.14-.43.26-.51.31,0,0c-2,1.22-3.35,2-3.87,2.27l-.07,0a2.87,2.87,0,0,0-.44.34,3.82,3.82,0,0,0-1.09,2.77,7.91,7.91,0,0,0,.06,1.08c0,.14,0,.28.06.42s.08.44.13.66.09.36.14.53.13.41.21.62a4.28,4.28,0,0,0,.17.46l0,.08Z"/><path class="cls-1" d="M313.11,604.79a10.75,10.75,0,0,1-4.58-8.58c.11-3.1,2.33-4.29,5-2.65a10.78,10.78,0,0,1,4.58,8.59C318,605.25,315.75,606.43,313.11,604.79Z"/><path class="cls-5" d="M290.56,606.87a8.28,8.28,0,0,0,3.52,6.6,2.65,2.65,0,0,0,2.62.35h0L315,604.1h0a2.62,2.62,0,0,0,1.17-2.38,8.26,8.26,0,0,0-3.52-6.59,2.62,2.62,0,0,0-2.63-.35h0l-18.25,9.71h0A2.62,2.62,0,0,0,290.56,606.87Z"/><path class="cls-6" d="M291.75,604.48a2.62,2.62,0,0,0-1.19,2.39,7.21,7.21,0,0,0,.55,2.82l23.54-12.56a7,7,0,0,0-2-2,2.62,2.62,0,0,0-2.63-.35l-18.25,9.71Z"/><path class="cls-1" d="M314,623.07c0-11.69-7.73-23.39-23.19-32.32-30.92-17.85-81-17.85-112,0-15.46,8.93-23.19,20.63-23.19,32.32h0v21.55c0,11.7,7.73,23.4,23.19,32.32,30.92,17.85,81,17.85,112,0C306.25,668,314,656.32,314,644.62V623.07ZM182.66,597.38c13.8-8,32.32-12.36,52.15-12.36s38.34,4.39,52.15,12.36c12.49,7.21,19.36,16.34,19.36,25.7s-6.88,18.48-19.36,25.68c-13.81,8-32.33,12.37-52.15,12.37s-38.35-4.39-52.15-12.37c-12.49-7.2-19.36-16.33-19.36-25.68S170.17,604.59,182.66,597.38Z"/><path class="cls-21" d="M178.82,655.4c30.92,17.85,81.05,17.85,112,0s30.92-46.8,0-64.65-81-17.85-112,0S147.91,637.55,178.82,655.4Zm-15.53-32.32c0-9.36,6.88-18.49,19.36-25.7C196.46,589.41,215,585,234.8,585s38.35,4.39,52.16,12.36c12.48,7.21,19.36,16.34,19.36,25.7s-6.88,18.48-19.36,25.68c-13.81,8-32.33,12.37-52.16,12.37s-38.34-4.39-52.15-12.37C170.17,641.56,163.29,632.43,163.29,623.08Z"/><path class="cls-1" d="M163.29,623.07a21.18,21.18,0,0,0,3.09,10.78c3.14-5.43,8.67-10.53,16.28-14.91,13.79-8,32.32-12.37,52.15-12.37S273.15,611,287,618.94c7.61,4.38,13.14,9.48,16.29,14.91a21.37,21.37,0,0,0,3.08-10.78c0-9.35-6.87-18.48-19.37-25.69-13.8-8-32.32-12.36-52.14-12.36s-38.36,4.4-52.15,12.36C170.16,604.59,163.29,613.72,163.29,623.07Z"/><path class="cls-20" d="M163.29,623.07a21.18,21.18,0,0,0,3.09,10.78c3.14-5.43,8.67-10.53,16.28-14.91,13.79-8,32.32-12.37,52.15-12.37S273.15,611,287,618.94c7.61,4.38,13.14,9.48,16.29,14.91a21.37,21.37,0,0,0,3.08-10.78c0-9.35-6.87-18.48-19.37-25.69-13.8-8-32.32-12.36-52.14-12.36s-38.36,4.4-52.15,12.36C170.16,604.59,163.29,613.72,163.29,623.07Z"/><path class="cls-22" d="M182.65,607.14c13.81-8,32.33-12.36,52.15-12.36s38.35,4.39,52.16,12.36c10.3,6,16.77,13.2,18.72,20.81-1.95,7.61-8.42,14.87-18.72,20.81-13.81,8-32.33,12.37-52.16,12.37s-38.34-4.39-52.15-12.37c-10.3-5.94-16.77-13.2-18.72-20.81C165.88,620.34,172.35,613.09,182.65,607.14Z"/><path class="cls-20" d="M216.15,667.51V689c-13.67-1.9-26.64-5.93-37.32-12.1-15.46-8.92-23.2-20.62-23.2-32.32V623.07a27.58,27.58,0,0,1,1-7.06h0c-3.75,13.92,3.66,28.65,22.23,39.39C189.51,661.57,202.48,665.6,216.15,667.51Z"/></g><g id="Character"><path class="cls-6" d="M593.49,536c.93.38,1.13,2.18,1.19,5.76.05,2.71.52,7.45-2.67,8.33s-7.83.28-9.8-2.32c-2.47-3.24-4.12-6.08-7.65-10.05-3.07-3.44-6.4-6.67-7.56-11.43-1-4.3,0-6.13,2.89-7.3,4.05-1.62,10.22,4.1,13.34,5C585.92,524.81,592.55,535.57,593.49,536Z"/><path class="cls-23" d="M593.56,532.63l-.1,4.4s-4.65,3.4-11.11.05c-.18-.43-1-6.31-1-6.31Z"/><path class="cls-6" d="M557.33,560.47s1.17,3.85,1.78,7.21c.48,2.66,1.15,7.12.18,9.1s-4.64,3.18-10.26,3c-3.64-.11-9.38,2.24-13.32,4.32S523.28,587,519,586.37c-5-.7-10.11-3.72-10.87-5.81s.36-4.22,12.27-9c.11,0,16.52-5,22.36-11.14Z"/><path class="cls-23" d="M557.44,555.72s-.09,3.26-.12,5.12-2.29,4.59-8,4.26c-4-.23-6.77-1.37-6.54-4.66l.11-4.75Z"/><path class="cls-5" d="M597.73,474.38c-1.69-14.4-4.67-23-4.67-23s2-19.71,3.19-38.41c1.26-20.2,2.44-30.61-1.53-59.78,0,0-61.94-5.57-63.63,17.78s.71,82.94,1.25,93.22,2.11,19.41,3.85,36.1c1.73,16.48,6.72,55.4,6.72,55.4,7.36,4.2,14.53,0,14.53,0s5.64-46.64,5.43-58.5a101.62,101.62,0,0,0-3.91-26s1.67-19.25,3.14-36,2.81-24.76,3.22-32l1.42-.67s.78,29,1.32,39.25,2,20.16,4.5,39.31c2.2,16.6,9.09,51.78,9.09,51.78,7.36,4.2,11.91-.26,11.91-.26S599.42,488.79,597.73,474.38Z"/><path class="cls-6" d="M565.32,403.22s16-7.45,24.09-14.3c0,0-7.59,10.2-17.35,14.57,0,0-4.24,35.86-4.21,35.14l-1.19-35.44Z"/><polygon class="cls-23" points="554.23 269.96 556.64 291.34 576.84 290.32 574.6 265.37 554.23 269.96"/><path class="cls-5" d="M584.45,278.15c7.52-.35,11.34.78,14.72,7.26s4.7,25.87,5.87,35.86,1.47,17-2.64,18.07-20.12,1.47-20.12,1.47Z"/><path class="cls-7" d="M597.15,289.23c-1.09-6-9-12.28-16.33-11.08-1.71.28-3.38.56-5,.85-.88,3.6-10.74,5.85-20.16,3.63-2.84.74-12.19,2.49-14.55,3.28-6.77,2.25-9.56,8.91-10.62,31,0,0,.54,50,.28,60,16.71,7,34.26,7.24,44,5.34,20.28-3.95,22.9-12.27,22.9-12.27l-3-22.87S599.61,302.77,597.15,289.23Z"/><path class="cls-5" d="M555,277l.16,1.35a30.15,30.15,0,0,0,12.4,0c6.56-1.46,7.88-3.32,7.88-3.32l-.13-1.52s1.63-.61,2.49,1.9a27.63,27.63,0,0,1,.95,3.07s.75,4.6-7,6.94a23.88,23.88,0,0,1-19.21-2.1l-3,.64s2.62-6,3.41-7.26a2,2,0,0,1,1.89-1Z"/><polygon class="cls-7" points="493.37 254.08 453.32 274.98 473.22 329.39 510.59 308.45 493.37 254.08"/><polygon class="cls-24" points="491.53 259.4 457.93 276.94 475.54 323.72 506.9 306.15 491.53 259.4"/><path class="cls-8" d="M484.44,264.45l-.65-1.66c-.36-.92-3.15-.37-6.25,1.22l-5.91,3.06c-3.09,1.59-5.31,3.63-4.95,4.55l.65,1.66Z"/><path class="cls-1" d="M483.79,257.79c-.22-.57-1.44-.48-2.72.21l-2.31,1.25s-1.43-3.59-6.76-1.1-4.11,6.65-4.11,6.65l-2.46,1.36c-1.36.74-2.33,1.82-2.16,2.41l.3,1.06,20.63-10.77Z"/><path class="cls-1" d="M481.56,260.21c-1.91.94-2.67,1.4-2.12,2.82.63,1.61,1.22,2.77,1.22,2.77l-9.12,4.78s-.77-2.06-1.1-2.85-1-1.18-2.45-.42l-.54-.57,14.39-7.34Z"/><path class="cls-14" d="M481.56,260.21c-1.91.94-2.67,1.4-2.12,2.82.63,1.61,1.22,2.77,1.22,2.77l-9.12,4.78s-.77-2.06-1.1-2.85-1-1.18-2.45-.42l-.54-.57,14.39-7.34Z"/><path class="cls-1" d="M484.83,264.54l-.65-1.67c-.36-.91-3.15-.37-6.24,1.23l-5.92,3c-3.09,1.6-5.3,3.64-4.94,4.56l.65,1.66Z"/><path class="cls-23" d="M541.11,285.91c-9.25.8-13.18,2.49-20.12,15-7.54,13.59-22,38.17-23.85,41.27-2.56,4.32-3,10.89-.84,14.86,2.06,3.7,8.6,5.39,16-3,8.81-9.95,25.2-34.26,25.2-34.26S551.43,301.45,541.11,285.91Z"/><path class="cls-23" d="M500.13,359.88c-7.08-.86-23.64-23.31-28.34-30.65a52.51,52.51,0,0,0-14.34-15.13c-7.51-5.54-6.41-14.06-3.14-21.86,1.13-2.7,5-.95,5-.95l1.35,3.71,2.35,6.41c1.59,1.47,2.49,2,2.6,1.52.2-.83-1.17-4.28-1.14-7.88,0-4.32,3.07-1.48,4,0a53.55,53.55,0,0,1,3.19,7.14c1.51,3.87.89,7.79,2.73,10.43S500.88,339,500.88,339Z"/><path class="cls-5" d="M542.89,285.43c-5.6-.14-12.33.75-17.55,7.52s-26.08,43.61-26.08,43.61l-11.71-10.49s-7.36,4.25-9,12.72a126.27,126.27,0,0,0,10.6,14.39c5,5.44,10.47,9.2,15,7.53s9.15-5.25,18.89-18.82,20.39-29.58,20.39-29.58S550.14,296.66,542.89,285.43Z"/><path class="cls-25" d="M540,243.78s-5,7.65-4.47,8.4,4.29,1.43,4.29,1.43Z"/><path class="cls-6" d="M542.36,248.69a6,6,0,1,1,6-6A6,6,0,0,1,542.36,248.69Zm0-10.68a4.68,4.68,0,1,0,4.67,4.67A4.68,4.68,0,0,0,542.36,238Z"/><path class="cls-23" d="M554,222.61c-10.2,2.15-13.15,6.64-14.11,22.85-1,16.93.73,22.26,3,24.54,1.5,1.54,9.85,1.82,14.06.66,5.27-1.46,17.18-5.68,22.76-14.2,6.56-10,8.29-23.61,1.26-29.18C571,219.44,558.15,221.73,554,222.61Z"/><path class="cls-25" d="M554.36,271.13l-.47-3.12a20.15,20.15,0,0,1-10.46,2.37C545.37,271.34,550.45,271.62,554.36,271.13Z"/><polygon class="cls-6" points="536.91 241.43 555.06 243.78 554.33 245.05 536.91 242.79 536.91 241.43"/><path class="cls-6" d="M538.15,229.15a5.57,5.57,0,0,0,2.3-.14,3.66,3.66,0,0,0,1.25,4.26,5.13,5.13,0,0,0,4.57.6,4.46,4.46,0,0,0-.5,3.16,5.12,5.12,0,0,0,5.29,3.81c.11,2.37.14,4.69,2.67,5.77,0,0,1.61-6.26,6.89-5.47s6,7.56,2.68,11.67-6.43,2.56-6.47,2.54c.31.15.42,2.15.52,2.53a19,19,0,0,0,1.36,3.42,16.32,16.32,0,0,0,4.78,5.6c2.76,2,6.13,3.49,9.57,2.66a10.3,10.3,0,0,0,7-5.61,6.21,6.21,0,0,1,1.13-2,6.72,6.72,0,0,1,2.61-1.12A7.64,7.64,0,0,0,588.09,250a7,7,0,0,0,2.69-12.24,8.4,8.4,0,0,0,3.61-9.11,8.56,8.56,0,0,0-6-5.79c-2.06-.59-1.27-.92-1.91-2.93a7.38,7.38,0,0,0-9.4-4.85,7.1,7.1,0,0,0-5.09-5.48,6.88,6.88,0,0,0-3.6-.14c-.85.22-2.59,1-2.91,1.81-1.07-1-1.42-2.45-2.73-3.41a7.73,7.73,0,0,0-11.39,2.44,9.54,9.54,0,0,0-7.13-3,7.82,7.82,0,0,0-6.5,4,6.62,6.62,0,0,0,.88,7.42,7.59,7.59,0,0,0-3.94,3.41,4.79,4.79,0,0,0,.55,5.33,4.16,4.16,0,0,0,2,1.48A6.48,6.48,0,0,0,538.15,229.15Z"/><path class="cls-6" d="M553.62,250.18l.19-7.08a3.54,3.54,0,1,0-.19,7.08Z"/></g></g></g></svg>