<svg xmlns="http://www.w3.org/2000/svg" viewBox="0 0 97.74 116.29"><title>account</title><g id="Layer_2" data-name="Layer 2"><g id="Layer_1-2" data-name="Layer 1"><path d="M94.09,95.28c-11.82,13.82-26.94,20.63-44.11,21C30.06,116,14.63,108.47,2.66,93.8c-3.56-4.36-3.58-7.26.15-11.92,5-6.22,11.85-9.49,19.14-12.06,23.9-8.43,46.68-6.34,68.21,7.28a18.59,18.59,0,0,1,3.1,2.49C98.94,85.21,99.23,89.27,94.09,95.28Z"/><path d="M73.56,24.7a24.57,24.57,0,1,1-49.13-.52C24.57,10.2,35.57-.2,50,0,63,.19,73.66,11.31,73.56,24.7Z"/></g></g></svg>