<svg xmlns="http://www.w3.org/2000/svg" viewBox="0 0 90.3 180.49"><title>attachment</title><g id="Layer_2" data-name="Layer 2"><g id="Layer_1-2" data-name="Layer 1"><path d="M25,41.29H37v6.17Q37,81.71,37,116c0,.83,0,1.67,0,2.5.24,5.2,3.66,8.82,8.28,8.76,4.47-.06,7.77-3.42,7.84-8.58.15-12.16.09-24.32.09-36.48,0-15.83,0-31.66,0-47.48,0-13.2-8.25-22.32-20.29-22.34-11.83,0-20.66,9.32-20.69,22.19-.07,33.33-.13,66.66,0,100,.07,17.66,11.63,30.83,28.86,33.51,15,2.32,30.45-7.52,35.13-22.67a41,41,0,0,0,1.69-11.77c.14-28.66.07-57.32.07-86V41.33H89.85c.14,1.32.37,2.43.37,3.55,0,30.5.18,61,0,91.49-.17,23-18.64,42.62-40.84,44C24.33,182,3.71,165.71.39,141.78A46.53,46.53,0,0,1,0,135.31q0-51,0-102C0,14.54,14.11.18,32.57,0A32.63,32.63,0,0,1,65.71,32.8c.24,28.65.19,57.3.06,86a20.5,20.5,0,0,1-20.53,20.78c-11.47.09-20.42-8.62-20.51-20.57-.17-24.82-.05-49.65,0-74.47C24.7,43.53,24.85,42.57,25,41.29Z"/></g></g></svg>