<svg xmlns="http://www.w3.org/2000/svg" viewBox="0 0 26.93 26.93"><defs><style>.cls-1{fill:#308d62;}</style></defs><g id="Layer_2" data-name="Layer 2"><g id="Layer_1-2" data-name="Layer 1"><path class="cls-1" d="M12.1,15.5a.63.63,0,0,0-.92,0A.64.64,0,0,0,11,16a.68.68,0,0,0,.19.46.65.65,0,0,0,.92,0,.68.68,0,0,0,.19-.46A.64.64,0,0,0,12.1,15.5Z"/><path class="cls-1" d="M26.35,21.38l-5-5a2,2,0,0,0-2.49-.23L15.7,18.34a.65.65,0,0,1-.83-.08l-1-1.05a.66.66,0,0,0-.92,0,.64.64,0,0,0,0,.92l1,1.05a1.94,1.94,0,0,0,2.48.24l3.19-2.18a.63.63,0,0,1,.82.08l5,5a.64.64,0,0,1,0,.92,8.21,8.21,0,0,1-11.6,0L3.7,13.1a8.22,8.22,0,0,1,0-11.61.66.66,0,0,1,.46-.19.64.64,0,0,1,.46.19l5,5a.66.66,0,0,1,.08.83L7.51,10.49A2,2,0,0,0,7.74,13l1.58,1.58a.67.67,0,0,0,.93,0,.66.66,0,0,0,0-.92L8.66,12.06a.65.65,0,0,1-.07-.83L10.76,8a1.94,1.94,0,0,0-.23-2.48l-5-5a2,2,0,0,0-2.76,0A9.52,9.52,0,0,0,2.78,14L12.91,24.15a9.51,9.51,0,0,0,13.44,0A2,2,0,0,0,26.35,21.38Z"/><path class="cls-1" d="M8.77,9.6,4.82,5.65a.66.66,0,0,0-.92,0,.67.67,0,0,0,0,.93l4,3.94a.65.65,0,0,0,.92-.92Z"/><path class="cls-1" d="M23.88,24.71l-4.15-4.15a.65.65,0,0,0-.93.92L23,25.63a.62.62,0,0,0,.46.19.65.65,0,0,0,.46-.19A.66.66,0,0,0,23.88,24.71Z"/></g></g></svg>