<svg xmlns="http://www.w3.org/2000/svg" viewBox="0 0 257.01 257.3"><defs><style>.cls-1{fill:#fff;stroke:#fff;stroke-miterlimit:10;}</style></defs><g id="Layer_2" data-name="Layer 2"><g id="Layer_1-2" data-name="Layer 1"><path class="cls-1" d="M22.36,115.14c-9.81.85-16-3.09-19-12-3.6-10.45-.07-20,9.37-26.29-.47-9.77-1.24-19.21-1.29-28.64-.08-14.27,6.5-25.43,18-33.36C50.26.5,73.52-2.84,97.57,3.71c9.05,2.46,18,6.23,26.92,9.52,15.32,5.65,21.75,18.22,21.75,33.77,0,9.57-1.89,19.14-3,29.42,10.13,5.74,13.63,15.19,9.92,26.93-2.51,7.92-8.25,12.33-17.18,12.18-.72,2.18-1.39,4.38-2.16,6.54-5.67,15.9-16.28,27.25-31.63,34.21-5.09,2.3-6,8.82-1.82,12.76a19.35,19.35,0,0,0,12.72,5.7c23.4,1.68,42.83,21.08,44.5,44.47.71,10,.44,20,.36,30-.05,5.24-2.56,7.57-7.84,7.58q-71,.06-142,0c-4.28,0-7.46-2.05-7.47-6.36,0-11.81-.64-23.77,1-35.4,3-21.86,22-38.85,44.05-40.28,5.78-.37,9.65-3,13.4-6.55,2.85-2.68,1.88-9.95-1.4-11.36-18-7.75-29.59-21-34.54-40A11.88,11.88,0,0,0,22.36,115.14Zm85.52-75.35c-3.42,10-10.18,15.75-19.7,17.22-7.31,1.13-15.09,1.89-22.27.61-20.68-3.68-39,17.33-37,33.79.51,4.1,0,8.32.13,12.48,1,31.58,27.54,53.63,58.76,48.88s51.46-42.09,38.68-71a184.14,184.14,0,0,1-8.67-25.44A36.9,36.9,0,0,0,107.88,39.79ZM79.2,185.35c-2.18,3.51-4,6.51-5.87,9.42-2.8,4.27-5.78,4.6-9.25.93-3.33-3.5-6.7-7-9.67-10.79-2.14-2.74-4.59-3.32-7.81-3-17.37,1.52-33.42,14-36.79,31.12-2.28,11.57-1.71,23.7-2.43,35.85h143c0-9.89.62-19.42-.13-28.83-1.61-20.33-18.53-36.64-38.6-38.15-3-.23-5.35.25-7.38,2.85-2.86,3.67-6.15,7-9.33,10.43-4.12,4.44-6.86,4.14-10.18-1C83,191.34,81.21,188.55,79.2,185.35ZM132.6,78.58l3-.29c1-11.69,2.66-23.39,2.7-35.09,0-10-5-18.37-14.58-22.06C113.59,17.22,103.36,13,93,10.3,73.89,5.33,55,8.71,37.54,18.47c-11,6.18-17.77,15.32-18.71,28.3a90.22,90.22,0,0,0,3.43,32.09c1.39-2.68,2.2-4.22,3-5.77,8.44-16.66,23.54-24.72,41.7-22.63a68.66,68.66,0,0,0,15,.15c8.92-1,16.36-4.1,18.95-14.12,1.42-5.51,7.11-6.76,11.45-2.82a42.16,42.16,0,0,1,13.25,22.38C127.31,63.7,130.21,71.08,132.6,78.58ZM21.49,97h0c0-2.64.2-5.31,0-7.94-.37-4.07-3.85-6.38-6.67-4.47-4.09,2.78-5.36,7-5.16,11.71.19,4.48,1.67,8.52,5.91,10.79,3.7,2,5.92.55,6-3.63C21.52,101.35,21.49,99.2,21.49,97Zm47.07,63.55c-2.75,7.67,4,8.55,7.84,11.17,5.63,3.82,8.49-2.42,12.36-4.33,1.47-.73,1.42-4.53,2-6.84Zm70.83-77c-4.49,7.94-1.34,16.12-2.55,24,5.52-.14,8.44-2.71,9.66-8C148.1,92.59,145.82,87,139.39,83.55Zm-49,105.36,9.38-10.53-5.91-4.92-9.43,5.84ZM58.85,178.65l9.25,10.28c2.14-3.51,3.93-6.43,5.69-9.3C65,172.52,65,172.52,58.85,178.65Z"/><path class="cls-1" d="M165.16,142.71c-6.94.87-13.18,1.88-19.45,2.31-2,.13-5.36-.89-5.75-2.13a7.5,7.5,0,0,1,1.73-6.36c6.18-6.06,12.61-11.9,19.29-17.39,3.34-2.75,4.28-5.73,4.26-9.88-.15-31.16-.09-62.31-.07-93.46,0-11.19,3.84-15,15-15q31.24,0,62.48,0c9.37,0,13.86,4.42,13.87,13.68q0,69,0,138c0,9.42-4.29,13.84-13.68,13.87q-32,.1-64,0c-9.44,0-13.58-4.33-13.67-13.85C165.14,149.45,165.16,146.47,165.16,142.71Zm-11.34-7.07.49.83c3.62-.5,7.23-1.07,10.86-1.49,4.88-.55,7.23,1.46,7.37,6.33.11,3.5,0,7,0,10.49,0,5.94,1,7,7,7q31,0,62,0c6.6,0,7.43-.81,7.43-7.52q0-67.69,0-135.4c0-6.73-.78-7.52-7.42-7.53q-30.48,0-61,0c-7.31,0-8,.72-8,8,0,32.14-.06,64.28.07,96.42a11.86,11.86,0,0,1-4.42,10C163.29,126.86,158.61,131.31,153.82,135.64Z"/><path class="cls-1" d="M90.94,220.16a11.72,11.72,0,1,1-11.76-11.59A11.59,11.59,0,0,1,90.94,220.16ZM79.32,226c1.89-2.64,4.13-4.46,3.84-5.69-.39-1.68-2.71-2.91-4.2-4.33-1.26,1.47-3.42,2.87-3.53,4.42S77.42,223.44,79.32,226Z"/><path class="cls-1" d="M242.34,110.7c0,7.32.09,14.65,0,22-.13,8-4.45,12.37-12.42,12.46q-18.48.21-37,0c-7.9-.1-12.2-4.58-12.25-12.62q-.13-22,0-43.95c.05-7.88,4.6-12.48,12.41-12.56q18.48-.18,37,0c7.53.08,12.08,4.67,12.24,12.22S242.33,103.2,242.34,110.7Zm-7.7-.41c0-7.17-.06-14.33,0-21.49.05-3.54-1.4-5.2-5-5.18-12,.07-24,.1-36,0-3.86,0-5.37,1.58-5.35,5.39q.13,21.48,0,43c0,4,1.46,5.83,5.56,5.8,11.82-.1,23.65-.07,35.47,0,3.82,0,5.4-1.72,5.35-5.49C234.57,124.94,234.65,117.61,234.64,110.29Z"/><rect class="cls-1" x="186.5" y="57.79" width="51" height="8" rx="4"/><rect class="cls-1" x="186.5" y="40.79" width="51" height="8" rx="4"/><rect class="cls-1" x="200.5" y="22.79" width="37" height="8" rx="4"/><rect class="cls-1" x="207.5" y="88.79" width="8" height="28" rx="4"/><circle class="cls-1" cx="211.5" cy="125.79" r="4"/></g></g></svg>