<svg xmlns="http://www.w3.org/2000/svg" viewBox="0 0 227.76 227.76"><defs><style>.cls-1{fill:#308d62;stroke:#308d62;stroke-miterlimit:10;stroke-width:5px;}</style></defs><g id="Layer_2" data-name="Layer 2"><g id="Layer_1-2" data-name="Layer 1"><path class="cls-1" d="M224,75.13,201.76,52.91V6.85a4.35,4.35,0,0,0-4.35-4.35H133.32a4.35,4.35,0,1,0,0,8.7h59.74V99.89l-79.38,79.38-79-79V11.2H94.16a4.35,4.35,0,1,0,0-8.7H30.34A4.35,4.35,0,0,0,26,6.85V52.91L3.77,75.13A4.35,4.35,0,0,0,2.5,78.2V203.5a21.78,21.78,0,0,0,21.75,21.76H203.5a21.78,21.78,0,0,0,21.76-21.76V78.2A4.32,4.32,0,0,0,224,75.13ZM216.56,203.5a13,13,0,0,1-1.28,5.63l-59.57-59.57,60.85-60.85ZM201.76,65.21l13,13-13,13ZM12.48,209.13a13,13,0,0,1-1.28-5.63V89.1l60.65,60.65ZM26,91.58,12.81,78.4,26,65.21Zm-1.74,125a12.91,12.91,0,0,1-5.62-1.28L78,155.9l32.6,32.6a4.33,4.33,0,0,0,6.15,0l32.8-32.79,59.57,59.57a13,13,0,0,1-5.63,1.28Z"/><path class="cls-1" d="M113.74,11.2a4.34,4.34,0,0,0,4.35-4.35,4.35,4.35,0,1,0-7.43,3.08A4.38,4.38,0,0,0,113.74,11.2Z"/><path class="cls-1" d="M72.72,55.22A47.27,47.27,0,0,0,85,115.38a47.74,47.74,0,0,0,27.83,10H113a4.35,4.35,0,0,0,.12-8.7,38.68,38.68,0,0,1-10.67-75.51,38.68,38.68,0,0,1,48.75,25.61c1.93,7.28,1.3,14-2.09,22.55-1,2.42-4,8.07-10.94,8.07A4.51,4.51,0,0,1,135,96a6.8,6.8,0,0,1-1.93-4.84v-36a4.36,4.36,0,1,0-8.71,0v1.38A19,19,0,0,0,112,52.09c-11,0-22.35,9.53-22.35,25.47a29.15,29.15,0,0,0,6.27,18.53,20.43,20.43,0,0,0,15.63,7.85,19.21,19.21,0,0,0,14.14-6.44,15.21,15.21,0,0,0,3.12,4.61,13.15,13.15,0,0,0,9.32,4c10,0,16.42-7,19-13.57,4.09-10.28,4.82-18.94,2.39-28.08a.65.65,0,0,1,0-.13,47.31,47.31,0,0,0-86.81-9.12Zm38.85,40c-7.28,0-13.2-7.93-13.2-17.68,0-10.49,6.94-16.76,13.65-16.76,7.23,0,12.28,6.84,12.28,16.63s-5.71,17.81-12.73,17.81Z"/></g></g></svg>