<svg xmlns="http://www.w3.org/2000/svg" viewBox="0 0 50.68 50.68"><defs><style>.cls-1{fill:#308d62;stroke:#f2f4f2;stroke-miterlimit:10;}</style></defs><g id="Layer_2" data-name="Layer 2"><g id="Layer_1-2" data-name="Layer 1"><path class="cls-1" d="M36.88,21.85a1.94,1.94,0,0,1-1.94-1.94,1,1,0,1,0-1.94,0,1.94,1.94,0,0,1-3.88,0,4.86,4.86,0,1,1,9.71,0A1.94,1.94,0,0,1,36.88,21.85ZM21.65,19.91a4.85,4.85,0,1,0-9.7,0,1.94,1.94,0,1,0,3.88,0,1,1,0,0,1,1.94,0,1.94,1.94,0,1,0,3.88,0ZM38.19,46.6a1.94,1.94,0,1,0-2-3.32A21.18,21.18,0,1,1,42.74,37,1.94,1.94,0,0,0,46,39.13,24.82,24.82,0,0,0,7.78,7.78,24.84,24.84,0,0,0,38.19,46.6ZM33.68,28.73a1.92,1.92,0,0,0-1.54.78,9.86,9.86,0,0,1-13.6,0,1.94,1.94,0,0,0-3.49,1.17,2,2,0,0,0,.61,1.4,13.64,13.64,0,0,0,19.36,0,1.95,1.95,0,0,0-1.34-3.35Z"/></g></g></svg>