<svg xmlns="http://www.w3.org/2000/svg" viewBox="0 0 147.8 147.92"><title>exit</title><g id="Layer_2" data-name="Layer 2"><g id="Layer_1-2" data-name="Layer 1"><path d="M.19,98.72H16.36v32.14H130.91V16.65H16.82V48.76H.42c0-12.09-.61-24.22.23-36.25C1.19,4.77,8.58,0,17.44,0q33-.06,66,0,23,0,46,0c11.82,0,18.35,6.4,18.36,18.06q.06,56,0,112c0,10.65-6.69,17.75-17.29,17.78q-57,.18-113.93,0C8.27,147.8.86,142.15.38,134.36-.34,122.63.19,110.82.19,98.72Z"/><path d="M56.87,45.71,69.34,33.8l39.87,40.48-39.9,39.85L58.92,102.74C65.22,96.85,72.1,90.44,79,84L77.9,82.28H.22V65.91h79Z"/></g></g></svg>