<svg xmlns="http://www.w3.org/2000/svg" viewBox="0 0 164.16 150.7"><title>favourite</title><g id="Layer_2" data-name="Layer 2"><g id="Layer_1-2" data-name="Layer 1"><path d="M82.22,16.72C92.88,5.48,105.52-.59,120.69.05c30.23,1.26,49.74,29,41.63,58.79-3.17,11.65-9.58,21.52-17.16,30.64-18.68,22.49-41.23,41-63,61.22-5.84-5.25-11.68-10.13-17.09-15.44C49.52,120,33.74,105,18.85,89.1,9.35,79,2.54,66.85.53,52.68-2.26,33,6,15.27,22.29,6s37.36-7.58,52.5,4.31C77.26,12.2,79.54,14.38,82.22,16.72Z"/></g></g></svg>