<svg xmlns="http://www.w3.org/2000/svg" viewBox="0 0 206.04 256.01"><defs><style>.cls-1{fill:#308d62;}</style></defs><g id="Layer_2" data-name="Layer 2"><g id="Layer_1-2" data-name="Layer 1"><path class="cls-1" d="M205.59,239.19Q103.2,272.91.1,239v-5c0-37.15.07-74.3-.1-111.44,0-3.9,1.21-5.69,4.84-6.6,4.35-1.09,8.52-2.93,12.91-3.79,3.82-.75,5-2.37,5-6.29.15-13.3-.54-26.8,1.48-39.85,5.86-37.94,40.1-66,78.88-66s72.63,28.19,79,66.05a127,127,0,0,1,1.36,17.89c.22,8.81.05,17.63.05,26.51,6.63,2.1,13,3.94,19.22,6.22,1.4.52,3.19,2.57,3.2,3.93.12,39.14.05,78.28,0,117.43A8.12,8.12,0,0,1,205.59,239.19ZM15.12,128.48c0,31.74.08,62.88-.1,94,0,4.17,1.05,6,5.26,7.12q83.16,22.65,166.19-.17c3.91-1.08,4.72-2.79,4.7-6.51-.15-29.81-.08-59.63-.08-89.44v-5C132.25,111.32,73.92,111.32,15.12,128.48Zm153.21-21.35c0-10.49.44-20.61-.08-30.68C166.58,44.25,141.5,18.53,109,15.22,78,12.07,47.47,32.6,40.35,63.45c-3,12.9-1.91,26.75-2.62,40.17a17.09,17.09,0,0,0,.55,3.47l19.61-3.46c0-9.07-.51-18.07.09-27,1.89-28,29.66-47.46,56.81-40.09,20.12,5.46,33.33,22.72,33.73,44.27.14,7.6,0,15.21,0,22.85Zm-95.22-6h60.41c0-5.85,0-11.82,0-17.78a62.47,62.47,0,0,0-.43-8C131.1,61.28,118,50.12,103.37,50c-14.87-.1-28.61,11-30.1,25.36C72.38,83.92,73.11,92.62,73.11,101.17Z"/><path class="cls-1" d="M110.63,206.76h-15c0-5.62-.1-11.22,0-16.81.07-2.75-.65-4.41-3.31-5.89a22.09,22.09,0,0,1-10.94-25.48,22.53,22.53,0,0,1,43.37-.3c2.91,10.14-1.45,20.18-10.88,26.08a7.78,7.78,0,0,0-3.09,5.28C110.37,195.24,110.63,200.88,110.63,206.76ZM95.72,164.63a7.38,7.38,0,1,0,7.49-7.59A7.51,7.51,0,0,0,95.72,164.63Z"/></g></g></svg>