<svg xmlns="http://www.w3.org/2000/svg" viewBox="0 0 164.12 163.53"><title>message</title><g id="Layer_2" data-name="Layer 2"><g id="Layer_1-2" data-name="Layer 1"><path d="M0,163.53V90.86Q0,54.63,0,18.39C0,6.1,6.12,0,18.4,0H145.33c12.39,0,18.76,6.31,18.77,18.66q0,47,0,94c0,12.28-6.42,18.63-18.84,18.64q-54,0-108-.07a10.45,10.45,0,0,0-8.25,3.49C21,143.06,12.64,151.23,4.39,159.46,3.25,160.6,2,161.66,0,163.53ZM65.85,57.67V73.5h65V57.67Zm65.09-24.5H65.85V48.86h65.09ZM106.29,82.52H66V98h40.32ZM48.85,57.69H33.15v15.8h15.7ZM48.68,49V33.36H33.29V49Zm.21,33.49H33.21V98H48.89Z"/></g></g></svg>