<svg xmlns="http://www.w3.org/2000/svg" viewBox="0 0 115.19 155.77"><title>mic</title><g id="Layer_2" data-name="Layer 2"><g id="Layer_1-2" data-name="Layer 1"><path d="M82.49,49.32c0,8.49.39,17-.1,25.46-.61,10.54-5.91,18.38-16,22s-19,1.49-26.54-6.1C35,85.84,33.15,79.69,33.12,73c-.08-16-.23-32,.09-47.94C33.5,9.94,44.06-.25,58.47,0c13.84.25,24,11.06,24.14,25.84.09,7.82,0,15.65,0,23.48Z"/><path d="M102.33,74.12h12.85a49,49,0,0,1-6.58,25.47C100,114.7,87.12,124.3,70.13,128.14c-3,.67-4.17,1.74-4.07,4.92.23,7.46.07,14.93.07,22.71H49.88V129.59C20.78,122.41,3.14,105.29,0,73.88A119.88,119.88,0,0,1,12,74c1,.1,2.42,2.11,2.51,3.32,1.36,18.73,16,34.12,35.73,37.65,19.19,3.43,38.65-6.17,47-23.6C99.69,86.26,100.55,80.35,102.33,74.12Z"/></g></g></svg>