<svg xmlns="http://www.w3.org/2000/svg" viewBox="0 0 32.96 131.16"><title>more</title><g id="Layer_2" data-name="Layer 2"><g id="Layer_1-2" data-name="Layer 1"><path d="M16.15,131.16A16.14,16.14,0,0,1,0,114.52,16.37,16.37,0,0,1,16.76,98.39,16.61,16.61,0,0,1,33,115.12,16.32,16.32,0,0,1,16.15,131.16Z"/><path d="M16.49,0A16.18,16.18,0,0,1,33,16.34c0,8.86-7.77,16.58-16.54,16.46A16.55,16.55,0,0,1,0,16.28,16.13,16.13,0,0,1,16.49,0Z"/><path d="M0,65.48a16.47,16.47,0,0,1,32.94.2A16.65,16.65,0,0,1,16.36,82,16.5,16.5,0,0,1,0,65.48Z"/></g></g></svg>