<svg xmlns="http://www.w3.org/2000/svg" viewBox="0 0 131.81 160.04"><title>notification</title><g id="Layer_2" data-name="Layer 2"><g id="Layer_1-2" data-name="Layer 1"><path d="M.55,135.14C-.76,130,.17,126,4.42,123c10.51-7.34,13.72-17.27,12.63-30a154.43,154.43,0,0,1,.85-34.85c2.74-19.19,13.31-33,32.32-39.22,3.58-1.16,3.29-3.45,3.43-6.08C54.11,4.55,59.45-.56,67,.05a11.91,11.91,0,0,1,11.11,11.4c.11,2,0,4,1,4.93,6.87,4.45,14.35,8.19,20.48,13.5,10.32,8.94,14.72,21.27,15.31,34.63.61,13.62.38,27.29.19,40.94,0,3.84,1,6.61,3.85,9.1s5.42,5.94,8.55,8.37c4.1,3.21,5.13,7,3.77,12.22Z"/><path d="M50,143.94H81.56c1,7.94-5.59,15.43-13.94,16.05C57.52,160.73,50,154.09,50,143.94Z"/></g></g></svg>