<svg xmlns="http://www.w3.org/2000/svg" viewBox="0 0 22.4 22.4"><defs><style>.cls-1{fill:#308d62;}</style></defs><g id="Layer_2" data-name="Layer 2"><g id="Layer_1-2" data-name="Layer 1"><path class="cls-1" d="M13.56,8.31a.44.44,0,1,0,.44.44A.44.44,0,0,0,13.56,8.31Z"/><path class="cls-1" d="M21.89,19.41l-5.84-5.84A8.66,8.66,0,0,0,17.5,8.75,8.75,8.75,0,1,0,8.75,17.5a8.66,8.66,0,0,0,4.82-1.45l1.62,1.61h0l4.22,4.23a1.75,1.75,0,0,0,2.48-2.48Zm-8.52-4.29h0a7.87,7.87,0,1,1,1.75-1.75A8.07,8.07,0,0,1,13.37,15.12Zm.91.4a8.08,8.08,0,0,0,1.24-1.24l1.24,1.24a10.37,10.37,0,0,1-1.24,1.24Zm7,5.75a.9.9,0,0,1-.62.25.87.87,0,0,1-.62-.25l-3.88-3.89a11.9,11.9,0,0,0,1.23-1.23L21.27,20a.87.87,0,0,1,.25.62A.9.9,0,0,1,21.27,21.27Z"/><path class="cls-1" d="M8.75,1.75a7,7,0,1,0,7,7A7,7,0,0,0,8.75,1.75Zm0,13.12a6.13,6.13,0,1,1,6.12-6.12A6.13,6.13,0,0,1,8.75,14.87Z"/><path class="cls-1" d="M13.65,6.87A5.28,5.28,0,0,0,8.75,3.5a.44.44,0,0,0-.44.44.44.44,0,0,0,.44.43,4.38,4.38,0,0,1,4.08,2.82.45.45,0,0,0,.41.28.41.41,0,0,0,.16,0A.44.44,0,0,0,13.65,6.87Z"/></g></g></svg>