<svg xmlns="http://www.w3.org/2000/svg" viewBox="0 0 31.31 31.32"><defs><style>.cls-1{fill:#308d62;}</style></defs><g id="Layer_2" data-name="Layer 2"><g id="Layer_1-2" data-name="Layer 1"><path class="cls-1" d="M0,7.17V.81c0-.75.4-1,1.08-.67L1.3.25,30.61,15.14a1.15,1.15,0,0,1,.38.2c.14.18.34.4.32.59s-.25.39-.42.54a1.32,1.32,0,0,1-.46.16c-3.37,1.15-6.74,2.31-10.12,3.43a.75.75,0,0,0-.61.86q0,3.15,0,6.3a1,1,0,0,1-.41.72c-.17.08-.5-.12-.74-.23s-.21-.19-.31-.29c-1.52-1.51-3.06-3-4.56-4.53a.86.86,0,0,0-1.06-.23q-5.71,2-11.45,3.89c-.88.3-1.17.09-1.17-.84V7.17Zm1.24,18,2.07-.69V18.16c0-.4.16-.69.6-.7s.61.27.62.67,0,.53,0,.79v5.19L18,19.56,1.24,3ZM3.56,3.16,19,18.65a.82.82,0,0,0,1,.25c2.83-1,5.67-1.94,8.51-2.9l.64-.24L3.26,2.63l-.09.11C3.3,2.88,3.42,3,3.56,3.16ZM14.72,22l3.73,3.87V20.7Z"/><path class="cls-1" d="M27.64,28.37c.53,0,.86-.41.71-.79a1.55,1.55,0,0,0-.32-.44L23.88,23c-.06-.06-.12-.16-.18-.16a8.53,8.53,0,0,0-.88,0c0,.29-.1.66,0,.86A8.45,8.45,0,0,0,24,24.8L27.11,28C27.3,28.14,27.52,28.27,27.64,28.37Z"/><path class="cls-1" d="M15,31.32c.52,0,.81-.45.64-.83a.86.86,0,0,0-.21-.3L11.17,26c-.3-.29-.64-.42-1-.09s-.2.67.09,1L14.5,31A2.34,2.34,0,0,0,15,31.32Z"/><path class="cls-1" d="M29.18,28.58c-.16.22-.48.46-.45.65a.9.9,0,0,0,.57.6c.14,0,.54-.33.55-.52s-.26-.49-.41-.73Z"/><path class="cls-1" d="M3.79,15c-.16.24-.45.49-.43.72a.75.75,0,0,0,.55.54.77.77,0,0,0,.58-.52c0-.23-.27-.49-.42-.73Z"/></g></g></svg>