<svg xmlns="http://www.w3.org/2000/svg" viewBox="0 0 259.39 254.93"><defs><style>.cls-1{fill:#fff;stroke:#fff;stroke-miterlimit:10;stroke-width:3px;}</style></defs><g id="Layer_2" data-name="Layer 2"><g id="Layer_1-2" data-name="Layer 1"><path class="cls-1" d="M142.46,1.84Q194.66,12,246.84,22.31c8,1.59,10.92,5.27,10.93,13.54q0,31.26,0,62.51c0,1,.34,2.26-.13,3-.92,1.34-2.27,3.24-3.51,3.29s-2.89-1.72-3.62-3.08c-.63-1.19-.26-2.93-.26-4.43,0-19.84-.13-39.68.07-59.51.05-5-1.27-7.36-6.64-8.37-33.38-6.27-66.67-13-100-19.48-7.14-1.4-8.22-.48-8.22,6.8q0,111,0,222c0,7.33,1.06,8.26,8.16,6.87,33.33-6.52,66.63-13.2,100-19.49,5.33-1,6.72-3.3,6.7-8.31-.16-31.68-.09-63.35-.07-95,0-1.66-.27-3.53.39-4.92s2.33-2.76,3.5-2.72,2.62,1.66,3.43,2.92c.54.85.2,2.27.2,3.44q0,49,0,98c0,8.22-2.91,11.91-11,13.5q-50.46,10-101,19.75c-12,2.33-15.4.15-18.79-11.87H83.18c-11.64,0-15.34-3.65-15.34-15.13q0-33.26,0-66.51v-5.29H59.78c0,3.36.63,6.67-.19,9.56-.78,2.73-2.57,6.06-4.87,7.22-2.09,1-6.29.53-8.16-1-14.27-11.77-28.28-23.86-42.18-36.06C.52,130.13.55,125,4.42,121.6c13.91-12.2,27.92-24.3,42.19-36.06,1.86-1.53,6.08-2,8.16-1,2.3,1.18,4,4.52,4.82,7.26.82,2.89.19,6.19.19,9.41h8.06V92.5q0-32.51,0-65c0-7.55,3.92-12.5,10.39-12.94a89.74,89.74,0,0,1,14.48.06c1.5.15,2.79,2.4,4.18,3.69-1.34,1.15-2.58,3.09-4.06,3.31-3.43.5-7,.15-10.48.18-6,.06-6.82.83-6.83,7q0,34,0,68c0,1.45.15,2.89.26,4.77H105c9,0,11.07,2.13,11.08,11.27q0,15,0,30c0,8.4-2.29,10.67-10.66,10.68H76.28c-.37.8-.62,1.08-.62,1.37q-.07,36.75-.13,73.51c0,4.11,2.51,4.95,5.92,4.94,8.17,0,16.34,0,24.5,0h21.44V21.78c-5.54,0-10.69,0-15.83,0-2.62,0-5.21-.8-4.59-3.71.32-1.49,3-3.32,4.79-3.48,5.1-.47,10.28-.17,15.61-.17C129.29,4.25,134.2.24,142.46,1.84ZM52.38,165v-7.14C52.39,147,53.48,146,64.49,146h43.79V109.49c-1.75-.1-3.51-.26-5.27-.27-13.82,0-27.64,0-41.45,0-7.17,0-9.1-2.07-9.18-9.3,0-2.75,0-5.5,0-9.7L8.88,127.58Z"/><path class="cls-1" d="M149.38,128a64,64,0,0,0,0,7.46,11.29,11.29,0,0,0,13.1,9.94c1.52-.29,2.71-2.3,4-3.52-1.26-1.29-2.52-3.69-3.8-3.7-5.4,0-6.41-3-6.05-7.45a39.93,39.93,0,0,0,0-6.47c-.33-4.28.68-7,5.81-7.17,1.38,0,2.69-2.58,4-4-1.59-1.14-3.09-3.09-4.79-3.27-6.61-.71-11.88,4-12.45,10.69-.21,2.47,0,5,0,7.46Z"/></g></g></svg>