<svg xmlns="http://www.w3.org/2000/svg" viewBox="0 0 213.55 256.2"><defs><style>.cls-1{fill:#308d62;}</style></defs><g id="Layer_2" data-name="Layer 2"><g id="Layer_1-2" data-name="Layer 1"><path class="cls-1" d="M106.6,256.11c-20.33,0-40.66.27-61-.15a59.69,59.69,0,0,1-19.52-3.38c-15.83-6-24.72-18.24-25.74-34.91-1.43-23.19,1.21-46,12.2-67,8.6-16.48,22-26.14,40.94-26.58C57.65,124,62.09,126,66,127.91c8.22,3.94,15.82,9.39,24.3,12.5,16.2,6,31.81,2.56,46.51-5.77a53.91,53.91,0,0,0,7.95-5.17c8.07-6.69,17-6.57,26.43-3.93,13.67,3.85,23.34,12.57,29.71,25,11.41,22.19,14.34,46.08,11.83,70.46-2.12,20.52-19.85,34.52-42.13,35.11-.66,0-1.33,0-2,0Zm.26-15v0c21,0,42,.18,63-.05,17.71-.2,28.87-10.88,28.54-28.34a240.19,240.19,0,0,0-3.75-36.16,54.2,54.2,0,0,0-13.77-28.38c-9.06-9.65-20-11.07-31-4-2.24,1.44-4.45,2.95-6.77,4.23-15.54,8.57-32,12-49.6,8.62-12.32-2.39-23.31-7.84-33.35-15.18-4-2.95-8-3.17-12.67-2-10.19,2.45-17,8.95-21.59,17.87-9.76,18.78-11.84,39.12-10.42,59.74.88,12.83,9.25,20.64,22,23a54,54,0,0,0,9.43.76C66.89,241.12,86.88,241.09,106.86,241.09Z"/><path class="cls-1" d="M43.54,61.9a61.67,61.67,0,1,1,61.72,61.36A61.18,61.18,0,0,1,43.54,61.9Zm61.64,46.33A46.6,46.6,0,1,0,58.57,61.69,46.38,46.38,0,0,0,105.18,108.23Z"/></g></g></svg>